<svg xmlns="http://www.w3.org/2000/svg" xmlns:xlink="http://www.w3.org/1999/xlink" viewBox="0 0 65.53 56.57"><defs><style>.cls-1{fill:url(#Unbenannter_Verlauf_123);}.cls-2{fill:url(#Unbenannter_Verlauf_123-2);}.cls-3{fill:url(#Unbenannter_Verlauf_123-3);}.cls-4{fill:url(#Unbenannter_Verlauf_123-4);}.cls-5{fill:url(#Unbenannter_Verlauf_123-5);}</style><linearGradient id="Unbenannter_Verlauf_123" x1="21.72" y1="3.85" x2="25.56" y2="3.85" gradientUnits="userSpaceOnUse"><stop offset="0" stop-color="#296877"/><stop offset="1" stop-color="#1f7d80"/></linearGradient><linearGradient id="Unbenannter_Verlauf_123-2" x1="0" y1="15.43" x2="7.19" y2="15.43" xlink:href="#Unbenannter_Verlauf_123"/><linearGradient id="Unbenannter_Verlauf_123-3" x1="0" y1="38.58" x2="7.19" y2="38.58" xlink:href="#Unbenannter_Verlauf_123"/><linearGradient id="Unbenannter_Verlauf_123-4" x1="40.1" y1="15.43" x2="47.29" y2="15.43" xlink:href="#Unbenannter_Verlauf_123"/><linearGradient id="Unbenannter_Verlauf_123-5" x1="8.29" y1="34.11" x2="65.53" y2="34.11" xlink:href="#Unbenannter_Verlauf_123"/></defs><g id="Amazing2"><path class="cls-1" d="M23.64,7.71a1.92,1.92,0,0,0,1.92-1.92V1.92a1.92,1.92,0,1,0-3.84,0V5.79A1.92,1.92,0,0,0,23.64,7.71Z"/><path class="cls-2" d="M6.23,14.73,2.88,12.8A1.92,1.92,0,1,0,1,16.12l3.35,1.94a1.92,1.92,0,0,0,1.92-3.33Z"/><path class="cls-3" d="M4.31,36,1,37.88a1.92,1.92,0,0,0,1.92,3.33l3.35-1.93A1.92,1.92,0,0,0,4.31,36Z"/><path class="cls-4" d="M43,18.06l3.35-1.94a1.92,1.92,0,0,0-1.92-3.32l-3.35,1.93A1.92,1.92,0,0,0,43,18.06Z"/><path class="cls-5" d="M51.05,29.73a14.44,14.44,0,0,0-13.39-9A15.35,15.35,0,1,0,15.39,40a10.84,10.84,0,0,0,9.14,16.62c30.21,0,28.55.08,29.08-.09a13.44,13.44,0,0,0-2.56-26.75ZM12.13,27a11.51,11.51,0,0,1,21.52-5.69A14.41,14.41,0,0,0,23.31,35a10.7,10.7,0,0,0-5.26,2.09A11.52,11.52,0,0,1,12.13,27ZM52.88,52.7c-.68,0-18.1,0-28.35,0a7,7,0,0,1-4.7-12.15,6.88,6.88,0,0,1,5.34-1.79,1.92,1.92,0,0,0,2.08-2.18,10.56,10.56,0,0,1,20.64-4.26,1.92,1.92,0,0,0,2.24,1.38,9.6,9.6,0,1,1,2.75,19Z"/></g></svg>