<?xml version="1.0" encoding="utf-8"?>
<!-- Generator: Adobe Illustrator 25.1.0, SVG Export Plug-In . SVG Version: 6.00 Build 0)  -->
<svg version="1.1" id="Capa_1" xmlns="http://www.w3.org/2000/svg" xmlns:xlink="http://www.w3.org/1999/xlink" x="0px" y="0px"
	 viewBox="0 0 512 512" style="enable-background:new 0 0 512 512;" xml:space="preserve">
<style type="text/css">
	.st0{fill:url(#SVGID_1_);}
	.st1{fill:url(#SVGID_2_);}
	.st2{fill:url(#SVGID_3_);}
	.st3{fill:url(#SVGID_4_);}
	.st4{fill:url(#SVGID_5_);}
	.st5{fill:url(#SVGID_6_);}
	.st6{fill:url(#SVGID_7_);}
</style>
<g>
	<linearGradient id="SVGID_1_" gradientUnits="userSpaceOnUse" x1="7.629395e-06" y1="171" x2="512" y2="171">
		<stop  offset="2.793296e-03" style="stop-color:#0F5159"/>
		<stop  offset="1" style="stop-color:#354F65"/>
	</linearGradient>
	<path class="st0" d="M440.4,161.6c-4.9-79.8-71.3-143.2-152.3-143.2c-29.2,0-57.5,8.3-82,23.9c-21.2,13.5-38.7,32-51,53.8
		c-12.2-4.2-25-6.4-38.2-6.4c-64.5,0-117,52.5-117,117s52.5,117,117,117h203.4c5.5,0,10-4.5,10-10s-4.5-10-10-10H117
		c-53.5,0-97-43.5-97-97s43.5-97,97-97c13.5,0,26.5,2.7,38.8,8.1c0,0,0,0,0,0c24.5,10.7,43.6,31.3,52.5,56.5
		c1.5,4.1,5.3,6.7,9.4,6.7c1.1,0,2.2-0.2,3.3-0.6c5.2-1.8,7.9-7.6,6.1-12.8c-9.5-27-28.8-49.6-53.7-63.4
		c23.7-40.9,66.8-65.9,114.6-65.9c70,0,127.5,54.5,132.3,123.3c-12,1.5-23.5,5.7-33.8,12.3c-4.6,3-6,9.2-3,13.8
		c1.9,3,5.1,4.6,8.4,4.6c1.9,0,3.7-0.5,5.4-1.6c9.9-6.4,21.4-9.8,33.2-9.8c33.8,0,61.3,27.5,61.3,61.3c0,33.8-27.5,61.3-61.3,61.3
		h-30.4c-5.5,0-10,4.5-10,10s4.5,10,10,10h30.4c44.8,0,81.3-36.5,81.3-81.3C512,200.8,480.7,166.4,440.4,161.6L440.4,161.6z"/>
	<linearGradient id="SVGID_2_" gradientUnits="userSpaceOnUse" x1="350.34" y1="313.609" x2="370.34" y2="313.609">
		<stop  offset="2.793296e-03" style="stop-color:#0F5159"/>
		<stop  offset="1" style="stop-color:#354F65"/>
	</linearGradient>
	<circle class="st1" cx="360.3" cy="313.6" r="10"/>
	<linearGradient id="SVGID_3_" gradientUnits="userSpaceOnUse" x1="223.5" y1="376.109" x2="288.5" y2="376.109">
		<stop  offset="2.793296e-03" style="stop-color:#0F5159"/>
		<stop  offset="1" style="stop-color:#354F65"/>
	</linearGradient>
	<path class="st2" d="M256,343.6c-17.9,0-32.5,14.6-32.5,32.5s14.6,32.5,32.5,32.5c17.9,0,32.5-14.6,32.5-32.5
		S273.9,343.6,256,343.6z M256,388.6c-6.9,0-12.5-5.6-12.5-12.5s5.6-12.5,12.5-12.5s12.5,5.6,12.5,12.5
		C268.5,383,262.9,388.6,256,388.6z"/>
	<linearGradient id="SVGID_4_" gradientUnits="userSpaceOnUse" x1="73.5" y1="376.109" x2="138.5" y2="376.109">
		<stop  offset="2.793296e-03" style="stop-color:#0F5159"/>
		<stop  offset="1" style="stop-color:#354F65"/>
	</linearGradient>
	<path class="st3" d="M106,343.6c-17.9,0-32.5,14.6-32.5,32.5s14.6,32.5,32.5,32.5s32.5-14.6,32.5-32.5S123.9,343.6,106,343.6z
		 M106,388.6c-6.9,0-12.5-5.6-12.5-12.5s5.6-12.5,12.5-12.5s12.5,5.6,12.5,12.5C118.5,383,112.9,388.6,106,388.6z"/>
	<linearGradient id="SVGID_5_" gradientUnits="userSpaceOnUse" x1="298.5" y1="461.109" x2="363.5" y2="461.109">
		<stop  offset="2.793296e-03" style="stop-color:#0F5159"/>
		<stop  offset="1" style="stop-color:#354F65"/>
	</linearGradient>
	<path class="st4" d="M331,428.6c-17.9,0-32.5,14.6-32.5,32.5s14.6,32.5,32.5,32.5s32.5-14.6,32.5-32.5S348.9,428.6,331,428.6z
		 M331,473.6c-6.9,0-12.5-5.6-12.5-12.5s5.6-12.5,12.5-12.5s12.5,5.6,12.5,12.5C343.5,468,337.9,473.6,331,473.6z"/>
	<linearGradient id="SVGID_6_" gradientUnits="userSpaceOnUse" x1="148.5" y1="461.109" x2="213.5" y2="461.109">
		<stop  offset="2.793296e-03" style="stop-color:#0F5159"/>
		<stop  offset="1" style="stop-color:#354F65"/>
	</linearGradient>
	<path class="st5" d="M181,428.6c-17.9,0-32.5,14.6-32.5,32.5s14.6,32.5,32.5,32.5s32.5-14.6,32.5-32.5S198.9,428.6,181,428.6z
		 M181,473.6c-6.9,0-12.5-5.6-12.5-12.5s5.6-12.5,12.5-12.5s12.5,5.6,12.5,12.5C193.5,468,187.9,473.6,181,473.6z"/>
	<linearGradient id="SVGID_7_" gradientUnits="userSpaceOnUse" x1="373.5" y1="376.109" x2="438.5" y2="376.109">
		<stop  offset="2.793296e-03" style="stop-color:#0F5159"/>
		<stop  offset="1" style="stop-color:#354F65"/>
	</linearGradient>
	<path class="st6" d="M406,343.6c-17.9,0-32.5,14.6-32.5,32.5s14.6,32.5,32.5,32.5s32.5-14.6,32.5-32.5S423.9,343.6,406,343.6z
		 M406,388.6c-6.9,0-12.5-5.6-12.5-12.5s5.6-12.5,12.5-12.5s12.5,5.6,12.5,12.5C418.5,383,412.9,388.6,406,388.6z"/>
</g>
</svg>
