<?xml version="1.0" encoding="utf-8"?>
<!-- Generator: Adobe Illustrator 25.1.0, SVG Export Plug-In . SVG Version: 6.00 Build 0)  -->
<svg version="1.1" id="Capa_1" xmlns="http://www.w3.org/2000/svg" xmlns:xlink="http://www.w3.org/1999/xlink" x="0px" y="0px"
	 viewBox="0 0 512 512" style="enable-background:new 0 0 512 512;" xml:space="preserve">
<style type="text/css">
	.st0{fill:url(#SVGID_1_);}
	.st1{fill:url(#SVGID_2_);}
	.st2{fill:url(#SVGID_3_);}
	.st3{fill:url(#SVGID_4_);}
	.st4{fill:url(#SVGID_5_);}
	.st5{fill:url(#SVGID_6_);}
	.st6{fill:url(#SVGID_7_);}
</style>
<g>
	<linearGradient id="SVGID_1_" gradientUnits="userSpaceOnUse" x1="-7.629395e-06" y1="156.8045" x2="512.001" y2="156.8045">
		<stop  offset="2.793296e-03" style="stop-color:#0F5159"/>
		<stop  offset="1" style="stop-color:#354F65"/>
	</linearGradient>
	<path class="st0" d="M440.4,147.4C435.5,67.6,369.1,4.2,288.1,4.2c-29.2,0-57.5,8.3-82,23.9c-21.2,13.5-38.7,32-51,53.8
		c-12.2-4.2-25-6.4-38.2-6.4C52.5,75.5,0,128,0,192.5s52.5,117,117,117h203.4c5.5,0,10-4.5,10-10s-4.5-10-10-10H117
		c-127.4-2.3-127.4-191.6,0-193.9c40.3-0.5,78.3,26.6,91.4,64.6c1.5,4.1,5.3,6.7,9.4,6.7c1.1,0,2.2-0.2,3.3-0.6
		c5.2-1.8,7.9-7.6,6.1-12.8c-9.5-27-28.8-49.6-53.7-63.4c23.7-40.9,66.8-65.9,114.6-65.9c70,0,127.5,54.5,132.3,123.3
		c-12,1.5-23.5,5.7-33.8,12.3c-4.6,3-6,9.2-3,13.8c1.9,3,5.1,4.6,8.4,4.6c1.9,0,3.7-0.5,5.4-1.6c39-26.6,95.8,4.1,94.5,51.5
		c-2,52.6-46.6,65.7-91.7,61.3c-5.5,0-10,4.5-10,10s4.5,10,10,10h30.4c44.8,0,81.3-36.5,81.3-81.3
		C512,186.6,480.7,152.2,440.4,147.4L440.4,147.4z"/>
	<linearGradient id="SVGID_2_" gradientUnits="userSpaceOnUse" x1="350.34" y1="299.413" x2="370.34" y2="299.413">
		<stop  offset="2.793296e-03" style="stop-color:#0F5159"/>
		<stop  offset="1" style="stop-color:#354F65"/>
	</linearGradient>
	<circle class="st1" cx="360.3" cy="299.4" r="10"/>
	<linearGradient id="SVGID_3_" gradientUnits="userSpaceOnUse" x1="375.5562" y1="369.413" x2="436.4442" y2="369.413">
		<stop  offset="2.793296e-03" style="stop-color:#0F5159"/>
		<stop  offset="1" style="stop-color:#354F65"/>
	</linearGradient>
	<path class="st2" d="M414.6,334.3c-1.8-3-5.1-4.9-8.6-4.9s-6.8,1.8-8.6,4.9l-17.5,29.1c-5.7,9.5-5.9,21-0.4,30.6
		s15.4,15.4,26.4,15.4s21-5.8,26.4-15.4c5.5-9.7,5.3-21.1-0.4-30.6L414.6,334.3z M415,384.1c-0.9,1.6-3.6,5.3-9,5.3s-8.1-3.7-9-5.3
		c-0.9-1.6-2.7-5.8,0.1-10.5l8.9-14.8l8.9,14.8C417.7,378.4,415.9,382.6,415,384.1L415,384.1z"/>
	<linearGradient id="SVGID_4_" gradientUnits="userSpaceOnUse" x1="225.5562" y1="369.413" x2="286.4442" y2="369.413">
		<stop  offset="2.793296e-03" style="stop-color:#0F5159"/>
		<stop  offset="1" style="stop-color:#354F65"/>
	</linearGradient>
	<path class="st3" d="M264.6,334.3c-1.8-3-5.1-4.9-8.6-4.9c-3.5,0-6.8,1.8-8.6,4.9l-17.5,29.1c-5.7,9.5-5.9,21-0.4,30.6
		s15.4,15.4,26.4,15.4c11.1,0,21-5.8,26.4-15.4c5.5-9.7,5.3-21.1-0.4-30.6L264.6,334.3z M265,384.1c-0.9,1.6-3.6,5.3-9,5.3
		s-8.1-3.7-9-5.3s-2.7-5.8,0.1-10.5l8.9-14.8l8.9,14.8C267.7,378.4,265.9,382.6,265,384.1L265,384.1z"/>
	<linearGradient id="SVGID_5_" gradientUnits="userSpaceOnUse" x1="150.5562" y1="467.804" x2="211.4442" y2="467.804">
		<stop  offset="2.793296e-03" style="stop-color:#0F5159"/>
		<stop  offset="1" style="stop-color:#354F65"/>
	</linearGradient>
	<path class="st4" d="M189.6,432.7c-1.8-3-5.1-4.9-8.6-4.9s-6.8,1.8-8.6,4.9l-17.5,29.1c-5.7,9.5-5.9,21-0.4,30.6
		s15.4,15.4,26.4,15.4s21-5.8,26.4-15.4c5.5-9.7,5.3-21.1-0.4-30.6L189.6,432.7z M190,482.5c-0.9,1.6-3.6,5.3-9,5.3s-8.1-3.7-9-5.3
		s-2.7-5.8,0.1-10.5l8.9-14.8l8.9,14.8C192.7,476.8,190.9,480.9,190,482.5z"/>
	<linearGradient id="SVGID_6_" gradientUnits="userSpaceOnUse" x1="300.1423" y1="467.804" x2="361.0313" y2="467.804">
		<stop  offset="2.793296e-03" style="stop-color:#0F5159"/>
		<stop  offset="1" style="stop-color:#354F65"/>
	</linearGradient>
	<path class="st5" d="M339.2,432.7c-1.8-3-5.1-4.9-8.6-4.9c-3.5,0-6.8,1.8-8.6,4.9l-17.5,29.1c-5.7,9.5-5.9,21-0.4,30.6
		c5.5,9.7,15.4,15.4,26.4,15.4s21-5.8,26.4-15.4c5.5-9.7,5.3-21.1-0.4-30.6L339.2,432.7z M339.6,482.5c-0.9,1.6-3.6,5.3-9,5.3
		s-8.1-3.7-9-5.3s-2.7-5.8,0.1-10.5l8.9-14.8l8.9,14.8C342.3,476.8,340.5,480.9,339.6,482.5L339.6,482.5z"/>
	<linearGradient id="SVGID_7_" gradientUnits="userSpaceOnUse" x1="75.5552" y1="369.413" x2="136.4432" y2="369.413">
		<stop  offset="2.793296e-03" style="stop-color:#0F5159"/>
		<stop  offset="1" style="stop-color:#354F65"/>
	</linearGradient>
	<path class="st6" d="M114.6,334.3c-1.8-3-5.1-4.9-8.6-4.9s-6.8,1.8-8.6,4.9l-17.5,29.1c-5.7,9.5-5.9,21-0.4,30.6
		s15.4,15.4,26.4,15.4s21-5.8,26.4-15.4c5.5-9.7,5.3-21.1-0.4-30.6L114.6,334.3z M115,384.1c-0.9,1.6-3.6,5.3-9,5.3s-8.1-3.7-9-5.3
		s-2.7-5.8,0.1-10.5l8.9-14.8l8.9,14.8C117.7,378.4,115.9,382.6,115,384.1L115,384.1z"/>
</g>
</svg>
