<?xml version="1.0" encoding="utf-8"?>
<!-- Generator: Adobe Illustrator 25.1.0, SVG Export Plug-In . SVG Version: 6.00 Build 0)  -->
<svg version="1.1" id="Capa_1" xmlns="http://www.w3.org/2000/svg" xmlns:xlink="http://www.w3.org/1999/xlink" x="0px" y="0px"
	 viewBox="0 0 512 512" style="enable-background:new 0 0 512 512;" xml:space="preserve">
<style type="text/css">
	.st0{fill:url(#SVGID_1_);}
	.st1{fill:url(#SVGID_2_);}
	.st2{fill:url(#SVGID_3_);}
	.st3{fill:url(#SVGID_4_);}
	.st4{fill:url(#SVGID_5_);}
	.st5{fill:url(#SVGID_6_);}
	.st6{fill:url(#SVGID_7_);}
</style>
<g>
	<linearGradient id="SVGID_1_" gradientUnits="userSpaceOnUse" x1="-7.629350e-06" y1="288.6287" x2="476.0443" y2="288.6287">
		<stop  offset="2.793296e-03" style="stop-color:#0F5159"/>
		<stop  offset="1" style="stop-color:#354F65"/>
	</linearGradient>
	<path class="st0" d="M409.6,325.8c-0.9-13.1-3.5-25.8-7.7-37.7c36.4-24.9,53.1-70.3,40.8-113.4c-7.6-26.5-25-48.4-49.1-61.8
		c-24.1-13.4-51.9-16.5-78.4-9c-41.8,12-71.4,49-74.5,91.7c-17.5,3.4-34.2,10-49.3,19.6c-19.6,12.5-35.8,29.5-47.2,49.6
		c-11.3-3.8-23-5.8-35-5.8C49,259.1,0,308.1,0,368.3s49,109.1,109.1,109.1h193.4c5.5,0,10-4.5,10-10c0-5.5-4.5-10-10-10H109.1
		c-49.2,0-89.1-40-89.1-89.1s40-89.1,89.1-89.1c12.4,0,24.4,2.5,35.7,7.5c22.5,9.9,40.1,28.8,48.3,52c1.5,4.1,5.3,6.7,9.4,6.7
		c1.1,0,2.2-0.2,3.3-0.6c5.2-1.8,7.9-7.6,6.1-12.8c-8.8-24.9-26.6-45.9-49.5-58.8c21.9-37.3,61.4-60.1,105.2-60.1
		c64.2,0,117.1,49.8,121.8,112.9c-11,1.5-21.5,5.4-30.9,11.4c-4.6,3-6,9.2-3,13.8c1.9,3,5.1,4.6,8.4,4.6c1.9,0,3.7-0.5,5.4-1.6
		c9.1-5.9,19.6-8.9,30.4-8.9c30.9,0,56.1,25.2,56.1,56.1s-25.2,56.1-56.1,56.1h-17.4c-5.5,0-10,4.5-10,10c0,5.5,4.5,10,10,10H400
		c42,0,76.1-34.1,76.1-76.1C476,362.6,447,330.6,409.6,325.8L409.6,325.8z M267.8,193c-2.3,0-4.5,0.1-6.7,0.2
		c3.9-32.8,27.2-60.8,59.7-70.1c21.3-6.1,43.8-3.5,63.2,7.2c19.4,10.8,33.5,28.5,39.6,49.8c9.6,33.5-2.6,68.7-29.7,89.2
		C369.9,224,322.4,193,267.8,193z"/>
	<linearGradient id="SVGID_2_" gradientUnits="userSpaceOnUse" x1="332.553" y1="467.3973" x2="352.5529" y2="467.3973">
		<stop  offset="2.793296e-03" style="stop-color:#0F5159"/>
		<stop  offset="1" style="stop-color:#354F65"/>
	</linearGradient>
	<circle class="st1" cx="342.6" cy="467.4" r="10"/>
	<linearGradient id="SVGID_3_" gradientUnits="userSpaceOnUse" x1="288.2235" y1="59.3691" x2="316.6819" y2="59.3691">
		<stop  offset="2.793296e-03" style="stop-color:#0F5159"/>
		<stop  offset="1" style="stop-color:#354F65"/>
	</linearGradient>
	<path class="st2" d="M297.1,76.9c1.3,4.4,5.3,7.2,9.6,7.2c0.9,0,1.8-0.1,2.8-0.4c5.3-1.5,8.4-7.1,6.9-12.4l-8.5-29.5
		c-1.5-5.3-7.1-8.4-12.4-6.9c-5.3,1.5-8.4,7.1-6.9,12.4L297.1,76.9z"/>
	<linearGradient id="SVGID_4_" gradientUnits="userSpaceOnUse" x1="189.488" y1="130.5244" x2="236.3475" y2="130.5244">
		<stop  offset="2.793296e-03" style="stop-color:#0F5159"/>
		<stop  offset="1" style="stop-color:#354F65"/>
	</linearGradient>
	<path class="st3" d="M194.6,131.8l26.9,14.9c1.5,0.9,3.2,1.3,4.8,1.3c3.5,0,6.9-1.9,8.8-5.1c2.7-4.8,0.9-10.9-3.9-13.6l-26.9-14.9
		c-4.8-2.7-10.9-0.9-13.6,3.9C188.1,123.1,189.8,129.1,194.6,131.8L194.6,131.8z"/>
	<linearGradient id="SVGID_5_" gradientUnits="userSpaceOnUse" x1="450.8073" y1="275.5244" x2="497.6675" y2="275.5244">
		<stop  offset="2.793296e-03" style="stop-color:#0F5159"/>
		<stop  offset="1" style="stop-color:#354F65"/>
	</linearGradient>
	<path class="st4" d="M492.5,274.2l-26.9-14.9c-4.8-2.7-10.9-0.9-13.6,3.9c-2.7,4.8-0.9,10.9,3.9,13.6l26.9,14.9
		c1.5,0.9,3.2,1.3,4.8,1.3c3.5,0,6.9-1.9,8.8-5.1C499.1,283,497.3,276.9,492.5,274.2L492.5,274.2z"/>
	<linearGradient id="SVGID_6_" gradientUnits="userSpaceOnUse" x1="462.4666" y1="161.8996" x2="511.9997" y2="161.8996">
		<stop  offset="2.793296e-03" style="stop-color:#0F5159"/>
		<stop  offset="1" style="stop-color:#354F65"/>
	</linearGradient>
	<path class="st5" d="M511.6,154.9c-1.5-5.3-7.1-8.4-12.4-6.9l-29.5,8.5c-5.3,1.5-8.4,7.1-6.9,12.4c1.3,4.4,5.3,7.3,9.6,7.3
		c0.9,0,1.8-0.1,2.8-0.4l29.5-8.5C510.1,165.8,513.1,160.2,511.6,154.9z"/>
	<linearGradient id="SVGID_7_" gradientUnits="userSpaceOnUse" x1="398.6244" y1="72.3651" x2="433.5303" y2="72.3651">
		<stop  offset="2.793296e-03" style="stop-color:#0F5159"/>
		<stop  offset="1" style="stop-color:#354F65"/>
	</linearGradient>
	<path class="st6" d="M403.8,94.5c1.5,0.9,3.2,1.3,4.8,1.3c3.5,0,6.9-1.9,8.8-5.1l14.9-26.9c2.7-4.8,0.9-10.9-3.9-13.6
		c-4.8-2.7-10.9-0.9-13.6,3.9l-14.9,26.9C397.2,85.8,398.9,91.9,403.8,94.5L403.8,94.5z"/>
</g>
</svg>
