<?xml version="1.0" encoding="utf-8"?>
<!-- Generator: Adobe Illustrator 25.1.0, SVG Export Plug-In . SVG Version: 6.00 Build 0)  -->
<svg version="1.1" id="Capa_1" xmlns="http://www.w3.org/2000/svg" xmlns:xlink="http://www.w3.org/1999/xlink" x="0px" y="0px"
	 viewBox="0 0 512 512" style="enable-background:new 0 0 512 512;" xml:space="preserve">
<style type="text/css">
	.st0{fill:url(#SVGID_1_);}
	.st1{fill:url(#SVGID_2_);}
	.st2{fill:url(#SVGID_3_);}
	.st3{fill:url(#SVGID_4_);}
	.st4{fill:url(#SVGID_5_);}
</style>
<g>
	<linearGradient id="SVGID_1_" gradientUnits="userSpaceOnUse" x1="443.5472" y1="137.473" x2="479.0437" y2="137.473">
		<stop  offset="2.793296e-03" style="stop-color:#0F5159"/>
		<stop  offset="1" style="stop-color:#354F65"/>
	</linearGradient>
	<path class="st0" d="M453.6,151.9c1.7,0,3.4-0.4,5-1.3l15.5-8.9c4.8-2.8,6.4-8.9,3.7-13.7c-2.8-4.8-8.9-6.4-13.7-3.7l-15.5,8.9
		c-4.8,2.8-6.4,8.9-3.7,13.7C446.7,150.2,450.1,151.9,453.6,151.9z"/>
	<linearGradient id="SVGID_2_" gradientUnits="userSpaceOnUse" x1="441.9359" y1="185.4521" x2="472.3774" y2="185.4521">
		<stop  offset="2.793296e-03" style="stop-color:#0F5159"/>
		<stop  offset="1" style="stop-color:#354F65"/>
	</linearGradient>
	<path class="st1" d="M449.4,193.7l10.4,2.8c0.9,0.2,1.7,0.3,2.6,0.3c4.4,0,8.5-2.9,9.7-7.4c1.4-5.3-1.7-10.8-7.1-12.2l-10.4-2.8
		c-5.3-1.4-10.8,1.7-12.2,7.1C440.9,186.8,444,192.3,449.4,193.7z"/>
	<linearGradient id="SVGID_3_" gradientUnits="userSpaceOnUse" x1="406.2755" y1="117.068" x2="429.0764" y2="117.068">
		<stop  offset="2.793296e-03" style="stop-color:#0F5159"/>
		<stop  offset="1" style="stop-color:#354F65"/>
	</linearGradient>
	<path class="st2" d="M413.7,131.9c0.9,0.2,1.7,0.3,2.6,0.3c4.4,0,8.5-2.9,9.7-7.4l2.8-10.4c1.4-5.3-1.7-10.8-7.1-12.2
		c-5.3-1.4-10.8,1.7-12.2,7.1l-2.8,10.4C405.2,125,408.4,130.5,413.7,131.9L413.7,131.9z"/>
	<linearGradient id="SVGID_4_" gradientUnits="userSpaceOnUse" x1="32.9562" y1="256" x2="479.0435" y2="256">
		<stop  offset="2.793296e-03" style="stop-color:#0F5159"/>
		<stop  offset="1" style="stop-color:#354F65"/>
	</linearGradient>
	<path class="st3" d="M474,370.3l-44.9-25.9l35.8-9.6c5.3-1.4,8.5-6.9,7.1-12.2c-1.4-5.3-6.9-8.5-12.2-7.1l-55.1,14.8l-22.4-12.9
		l0.8-1.3c1.8-3.1,1.8-6.9,0-10l-11.5-20c-1.8-3.1-5.1-5-8.7-5h-23.1c-3.6,0-6.9,1.9-8.7,5l-0.8,1.3l-21-12.1v-38.5l21-12.1l0.8,1.3
		c1.8,3.1,5.1,5,8.7,5h23.1c3.6,0,6.9-1.9,8.7-5l11.5-20c1.8-3.1,1.8-6.9,0-10l-0.8-1.3l7-4.1c4.8-2.8,6.4-8.9,3.7-13.7
		c-2.8-4.8-8.9-6.4-13.7-3.7l-7,4.1l-0.8-1.3c-1.8-3.1-5.1-5-8.7-5h-23.1c-3.6,0-6.9,1.9-8.7,5l-11.5,20c-1.8,3.1-1.8,6.9,0,10
		l0.8,1.3l-21,12.1L266,200.2V176h1.5c3.6,0,6.9-1.9,8.7-5l11.5-20c1.8-3.1,1.8-6.9,0-10l-11.5-20c-1.8-3.1-5.1-5-8.7-5H266V90.1
		l40.4-40.4c3.9-3.9,3.9-10.2,0-14.1c-3.9-3.9-10.2-3.9-14.1,0L266,61.9V10c0-5.5-4.5-10-10-10c-5.5,0-10,4.5-10,10v51.9l-26.2-26.2
		c-3.9-3.9-10.2-3.9-14.1,0c-3.9,3.9-3.9,10.2,0,14.1L246,90.1V116h-1.5c-3.6,0-6.9,1.9-8.7,5l-11.5,20c-1.8,3.1-1.8,6.9,0,10
		l11.5,20c1.8,3.1,5.1,5,8.7,5h1.5v24.2l-33.3,19.2l-21-12.1l0.8-1.3c1.8-3.1,1.8-6.9,0-10l-11.5-20c-1.8-3.1-5.1-5-8.7-5h-23.1
		c-3.6,0-6.9,1.9-8.7,5l-0.8,1.3l-22.4-12.9l-14.8-55.1c-1.4-5.3-6.9-8.5-12.2-7.1c-5.3,1.4-8.5,6.9-7.1,12.2l9.6,35.8L48,124.3
		c-4.8-2.8-10.9-1.1-13.7,3.7c-2.8,4.8-1.1,10.9,3.7,13.7l44.9,25.9L47,177.2c-5.3,1.4-8.5,6.9-7.1,12.2c1.2,4.5,5.2,7.4,9.7,7.4
		c0.9,0,1.7-0.1,2.6-0.3l55.2-14.8l22.4,12.9L129,196c-1.8,3.1-1.8,6.9,0,10l11.5,20c1.8,3.1,5.1,5,8.7,5h23.1c3.6,0,6.9-1.9,8.7-5
		l0.8-1.3l21,12.1v38.5l-21,12.1l-0.8-1.3c-1.8-3.1-5.1-5-8.7-5h-23.1c-3.6,0-6.9,1.9-8.7,5L129,306c-1.8,3.1-1.8,6.9,0,10l0.8,1.3
		l-22.4,12.9l-55.2-14.8c-5.3-1.4-10.8,1.7-12.2,7.1s1.7,10.8,7.1,12.2l35.8,9.6L38,370.3c-4.8,2.8-6.4,8.9-3.7,13.7
		c1.9,3.2,5.2,5,8.7,5c1.7,0,3.4-0.4,5-1.3l44.9-25.9l-9.6,35.8c-1.4,5.3,1.7,10.8,7.1,12.2c0.9,0.2,1.7,0.3,2.6,0.3
		c4.4,0,8.5-2.9,9.7-7.4l14.8-55.1l22.4-12.9l0.8,1.3c1.8,3.1,5.1,5,8.7,5h23.1c3.6,0,6.9-1.9,8.7-5l11.5-20c1.8-3.1,1.8-6.9,0-10
		l-0.8-1.3l21-12.1l33.3,19.2V336h-1.5c-3.6,0-6.9,1.9-8.7,5l-11.5,20c-1.8,3.1-1.8,6.9,0,10l11.5,20c1.8,3.1,5.1,5,8.7,5h1.5v25.9
		l-40.4,40.4c-3.9,3.9-3.9,10.2,0,14.1c2,2,4.5,2.9,7.1,2.9c2.6,0,5.1-1,7.1-2.9l26.2-26.2V502c0,5.5,4.5,10,10,10
		c5.5,0,10-4.5,10-10v-51.9l26.2,26.2c2,2,4.5,2.9,7.1,2.9c2.6,0,5.1-1,7.1-2.9c3.9-3.9,3.9-10.2,0-14.1L266,421.9V396h1.5
		c3.6,0,6.9-1.9,8.7-5l11.5-20c1.8-3.1,1.8-6.9,0-10l-11.5-20c-1.8-3.1-5.1-5-8.7-5H266v-24.2l33.3-19.2l21,12.1l-0.8,1.3
		c-1.8,3.1-1.8,6.9,0,10l11.5,20c1.8,3.1,5.1,5,8.7,5h23.1c3.6,0,6.9-1.9,8.7-5l0.8-1.3l22.4,12.9l14.8,55.1
		c1.2,4.5,5.2,7.4,9.7,7.4c0.9,0,1.7-0.1,2.6-0.3c5.3-1.4,8.5-6.9,7.1-12.2l-9.6-35.8l44.9,25.9c1.6,0.9,3.3,1.3,5,1.3
		c3.5,0,6.8-1.8,8.7-5C480.5,379.2,478.8,373.1,474,370.3L474,370.3z M345.5,191H357l5.8,10l-5.8,10h-11.5l-5.8-10L345.5,191z
		 M250.2,136h11.5l5.8,10l-5.8,10h-11.5l-5.8-10L250.2,136z M155,211l-5.8-10l5.8-10h11.5l5.8,10l-5.8,10H155z M166.5,321H155
		l-5.8-10l5.8-10h11.5l5.8,10L166.5,321z M261.8,376h-11.5l-5.8-10l5.8-10h11.5l5.8,10L261.8,376z M289.3,275.2L256,294.5
		l-33.3-19.2v-38.5l33.3-19.2l33.3,19.2V275.2z M345.5,321l-5.8-10l5.8-10H357l5.8,10l-5.8,10H345.5z"/>
	<linearGradient id="SVGID_5_" gradientUnits="userSpaceOnUse" x1="408.939" y1="162" x2="428.939" y2="162">
		<stop  offset="2.793296e-03" style="stop-color:#0F5159"/>
		<stop  offset="1" style="stop-color:#354F65"/>
	</linearGradient>
	<circle class="st4" cx="418.9" cy="162" r="10"/>
</g>
</svg>
