<?xml version="1.0" encoding="utf-8"?>
<!-- Generator: Adobe Illustrator 25.1.0, SVG Export Plug-In . SVG Version: 6.00 Build 0)  -->
<svg version="1.1" id="Capa_1" xmlns="http://www.w3.org/2000/svg" xmlns:xlink="http://www.w3.org/1999/xlink" x="0px" y="0px"
	 viewBox="0 0 512 512" style="enable-background:new 0 0 512 512;" xml:space="preserve">
<style type="text/css">
	.st0{fill:url(#SVGID_1_);}
	.st1{fill:url(#SVGID_2_);}
	.st2{fill:url(#SVGID_3_);}
	.st3{fill:url(#SVGID_4_);}
	.st4{fill:url(#SVGID_5_);}
</style>
<g>
	<linearGradient id="SVGID_1_" gradientUnits="userSpaceOnUse" x1="315.16" y1="107.9145" x2="335.159" y2="107.9145">
		<stop  offset="2.793296e-03" style="stop-color:#0F5159"/>
		<stop  offset="1" style="stop-color:#354F65"/>
	</linearGradient>
	<circle class="st0" cx="325.2" cy="107.9" r="10"/>
	<linearGradient id="SVGID_2_" gradientUnits="userSpaceOnUse" x1="129.7475" y1="59.58" x2="246.5155" y2="59.58">
		<stop  offset="2.793296e-03" style="stop-color:#0F5159"/>
		<stop  offset="1" style="stop-color:#354F65"/>
	</linearGradient>
	<path class="st1" d="M236.5,46.4c-34.6,0-68.6,2.2-98.2,6.4c-5.5,0.8-9.3,5.8-8.5,11.3c0.7,5,5,8.6,9.9,8.6c0.5,0,0.9,0,1.4-0.1
		c28.7-4,61.7-6.2,95.4-6.2c5.5,0,10-4.5,10-10C246.5,50.9,242,46.4,236.5,46.4L236.5,46.4z"/>
	<linearGradient id="SVGID_3_" gradientUnits="userSpaceOnUse" x1="152.5397" y1="163.2044" x2="234.6429" y2="163.2044">
		<stop  offset="2.793296e-03" style="stop-color:#0F5159"/>
		<stop  offset="1" style="stop-color:#354F65"/>
	</linearGradient>
	<path class="st2" d="M160.8,169.5c19.1,3.4,40.4,5.8,63.2,7.3c0.2,0,0.4,0,0.7,0c5.2,0,9.6-4.1,10-9.3c0.4-5.5-3.8-10.3-9.3-10.6
		c-22.1-1.5-42.6-3.8-61-7.1c-5.4-1-10.6,2.7-11.6,8.1C151.7,163.3,155.4,168.5,160.8,169.5L160.8,169.5z"/>
	<linearGradient id="SVGID_4_" gradientUnits="userSpaceOnUse" x1="149.5382" y1="315.5765" x2="231.6421" y2="315.5765">
		<stop  offset="2.793296e-03" style="stop-color:#0F5159"/>
		<stop  offset="1" style="stop-color:#354F65"/>
	</linearGradient>
	<path class="st3" d="M222.3,309.2c-22.1-1.5-42.6-3.8-61-7.1c-5.4-1-10.6,2.7-11.6,8.1c-1,5.4,2.7,10.6,8.1,11.6
		c19.1,3.4,40.4,5.8,63.2,7.3c0.2,0,0.4,0,0.7,0c5.2,0,9.6-4.1,10-9.3C232,314.3,227.8,309.6,222.3,309.2L222.3,309.2z"/>
	<linearGradient id="SVGID_5_" gradientUnits="userSpaceOnUse" x1="37.7491" y1="256.0008" x2="474.2509" y2="256.0008">
		<stop  offset="2.793296e-03" style="stop-color:#0F5159"/>
		<stop  offset="1" style="stop-color:#354F65"/>
	</linearGradient>
	<path class="st4" d="M425.1,161.5c33-9.5,49.2-21.9,49.2-37.6c0-5.5-4.5-10-10-10c-5.5,0-10,4.5-10,10c0,1.7-4.6,7.8-23.5,14.7
		c4.8-24.2,6.3-50.1,4.5-77.4c0,0,0,0,0,0c-0.5-19-21.5-34.4-62.6-45.7C336.2,5.5,287.8,0,236.5,0s-99.6,5.5-136.1,15.6
		C58.8,27,37.7,42.7,37.7,62c0,12.7,9.1,23.9,27.3,33.2c9.3,5.4,17.4,12.1,24.2,19.8c25.9,29.4,25.5,66.8,20.9,109.8
		C80.2,216.4,73.7,208,73.7,206c0-5.5-4.5-10-10-10s-10,4.5-10,10c0,16.4,17.8,29.2,54.2,38.9c0,0,0,0,0,0
		c-5,42.7-10.6,91.1,5.6,138.2c-17.9-6.9-27.9-15.5-27.9-22.6c0-5.5-4.5-10-10-10s-10,4.5-10,10c0,16.3,13.9,30.7,39.1,40.7
		c5.9,2.4,12.4,4.4,19.2,6.2c20.6,39.6,56.7,74.2,107.6,103.1c6.9,4.2,16.2-2.2,14.8-10.1c-4.7-33.3-3.4-64.3,3.7-92.7
		c7.3-1.8,14.1-4,20.3-6.5c25.2-10,39.1-24.5,39.1-40.7c0-5.5-4.5-10-10-10c-5.5,0-10,4.5-10,10c0,7.6-11.6,17-32.1,24.1
		c1.2-3,2.4-6,3.7-8.9c17.6-39.4,43.7-61.7,71.3-85.3c14.6-12.5,29.4-25.2,43.3-40.6c4.3-0.9,8.5-1.7,12.5-2.7
		c42.4-10,63-23.4,63-41.2c0-5.5-4.5-10-10-10c-5.5,0-10,4.5-10,10c0,2-6.4,10.3-35.8,18.6c5.2-7.7,10.1-16.1,14.7-25.3
		C416.2,187.3,421.2,174.7,425.1,161.5L425.1,161.5z M111.7,111.3c34.9,8.2,78.7,12.7,124.8,12.7c16.8,0,33.5-0.6,49.6-1.8
		c5.5-0.4,9.6-5.2,9.2-10.7c-0.4-5.5-5.2-9.6-10.7-9.2c-15.6,1.1-31.8,1.7-48.1,1.7c-49.5,0-96-5.3-130.8-14.9
		C67.8,78.7,57.7,66.8,57.7,62s10-16.7,47.9-27.1C140.5,25.3,187,20,236.5,20c49.6,0,96,5.3,130.8,14.9
		c37.9,10.4,47.9,22.3,47.9,27.1c0,5.2-11.1,17.8-53.3,28.5c-5.4,1.4-8.6,6.8-7.2,12.2c1.4,5.4,6.8,8.6,12.2,7.2
		c21.1-5.4,37.5-11.9,49-19.4c-0.5,19.1-2.9,37.4-7.1,54.6c-0.7,0.2-1.4,0.3-2.1,0.5c-34.9,8.2-81.5,12.8-131.2,12.8
		c-5.5,0-10,4.5-10,10c0,5.5,4.5,10,10,10c47,0,91.6-4,126.7-11.3c-2.9,8-6.1,15.8-9.9,23.3c-8.1,16.2-17.2,29.5-27.1,41.1
		c-32.1,5.8-71.4,9-112.8,9c-45.8,0-88.9-3.8-122.7-10.9C134.4,186.3,135.8,145.6,111.7,111.3L111.7,111.3z M224.4,483
		c-32.7-20.9-57.5-44.4-74.4-70.4c12,1.6,24.6,2.5,37.6,2.5c14.2,0,28.1-1,41-3C224,434.4,222.6,458.1,224.4,483z M319.5,275.4
		c-28,24-57,48.8-76.5,92.3c-3.4,7.5-6.3,15.3-8.8,23.2c-13.5,2.6-29.2,4.2-46.6,4.2c-18.8,0-35.6-1.9-49.8-4.9
		c-1.8-4.1-3.5-8.2-5-12.3c-15-42.4-10.2-86-5.3-128.3c34.9,7.1,78.7,10.9,125,10.9c31.8,0,62.5-1.8,89.9-5.3
		C334.9,262.1,327.3,268.7,319.5,275.4L319.5,275.4z"/>
</g>
</svg>
