<?xml version="1.0" encoding="utf-8"?>
<!-- Generator: Adobe Illustrator 25.1.0, SVG Export Plug-In . SVG Version: 6.00 Build 0)  -->
<svg version="1.1" id="Capa_1" xmlns="http://www.w3.org/2000/svg" xmlns:xlink="http://www.w3.org/1999/xlink" x="0px" y="0px"
	 viewBox="0 0 512 512" style="enable-background:new 0 0 512 512;" xml:space="preserve">
<style type="text/css">
	.st0{fill:url(#SVGID_1_);}
	.st1{fill:url(#SVGID_2_);}
	.st2{fill:url(#SVGID_3_);}
	.st3{fill:url(#SVGID_4_);}
</style>
<g>
	<linearGradient id="SVGID_1_" gradientUnits="userSpaceOnUse" x1="2.121949e-05" y1="256" x2="511.9997" y2="256">
		<stop  offset="2.793296e-03" style="stop-color:#0F5159"/>
		<stop  offset="1" style="stop-color:#354F65"/>
	</linearGradient>
	<path class="st0" d="M509.1,3.1c-3.5-3.5-9.1-3.9-13.1-0.9L366.8,99.8l22.1-78c1.2-4.1-0.4-8.5-3.9-10.9c-3.5-2.4-8.1-2.4-11.6,0.1
		L198.2,138.3c6.8-17.1,13.6-34.2,20.4-51.4c1.4-3.5,0.7-7.5-1.8-10.3s-6.3-4-9.9-3.1l-42.1,10.5C87.9,103.3,29.3,160.4,8.1,236.8
		c-21.2,76.4-0.3,155.5,55.7,211.6c74.4,77.4,202.2,84.2,285.9,18.9c39.1-29.8,66.2-71.3,78.4-119.9l10.5-42.1
		c0.9-3.6-0.3-7.5-3.1-10c-2.8-2.5-6.8-3.2-10.3-1.8c-17.1,6.8-34.2,13.6-51.3,20.4l31.4-43.3c3.2-4.5,2.3-10.7-2.2-14
		c-4.5-3.2-10.7-2.3-14,2.2l-51.7,71.2c-2.6,3.6-2.5,8.5,0.2,12c2.7,3.5,7.5,4.8,11.6,3.2c21.8-8.7,43.5-17.3,65.3-26l-5.8,23.2
		c-21.8,87.4-97.3,147.5-187.8,149.5c-53.7,1.2-104.4-19.4-142.9-57.9C27.1,383.3,8.2,311.5,27.4,242.1
		c19.2-69.4,72.4-121.2,142.3-138.7l23.2-5.8c-8.7,21.8-17.3,43.5-26,65.3c-1.6,4.1-0.4,8.9,3.1,11.6c3.5,2.7,8.4,2.8,12,0.2
		L361.8,44.2l-22.3,78.9c-1.2,4.1,0.4,8.6,4,11c3.5,2.4,8.2,2.3,11.7-0.3l95.5-72.2l-72.2,95.5c-2.6,3.4-2.7,8.1-0.3,11.7
		c2.4,3.5,6.8,5.1,11,4l78.9-22.4l-32.7,45c-3.2,4.5-2.3,10.7,2.2,14c4.5,3.2,10.7,2.3,14-2.2l49.6-68.4c2.5-3.4,2.5-8.1,0.1-11.6
		c-2.4-3.5-6.8-5.1-10.9-3.9l-78,22.1L510,16.2C513,12.2,512.6,6.6,509.1,3.1L509.1,3.1z"/>
	<linearGradient id="SVGID_2_" gradientUnits="userSpaceOnUse" x1="410.4704" y1="233.1199" x2="430.1309" y2="233.1199">
		<stop  offset="2.793296e-03" style="stop-color:#0F5159"/>
		<stop  offset="1" style="stop-color:#354F65"/>
	</linearGradient>
	<path class="st1" d="M420.2,223.3c5.4,0,9.9,4.3,9.9,9.8c0,5.4-4.3,9.9-9.8,9.9c-5.4,0-9.9-4.3-9.9-9.8
		C410.4,227.8,414.8,223.3,420.2,223.3z"/>
	<linearGradient id="SVGID_3_" gradientUnits="userSpaceOnUse" x1="69.5563" y1="319.6155" x2="312.3902" y2="319.6155">
		<stop  offset="2.793296e-03" style="stop-color:#0F5159"/>
		<stop  offset="1" style="stop-color:#354F65"/>
	</linearGradient>
	<path class="st2" d="M284.7,245l-89.4-43c-2.7-1.3-5.9-1.3-8.7,0l-89.4,43c-2.7,1.3-4.7,3.8-5.4,6.8l-22.1,96.7
		c-0.7,3,0,6.1,1.9,8.5l61.8,77.6c1.9,2.4,4.8,3.8,7.8,3.8h99.2c3,0,5.9-1.4,7.8-3.8l61.8-77.5c1.9-2.4,2.6-5.5,1.9-8.5l-22.1-96.7
		C289.4,248.8,287.4,246.3,284.7,245L284.7,245z M96,323.7l6.5-4.1l32.3,11.3l11.3,32.3l-18.2,28.9l-2.2,0.2l-35.2-44.2L96,323.7z
		 M235.7,418.3h-28.5l2.5-22.5l19.4-12.2l21.6,7.6l2,5.6L235.7,418.3z M267.5,378.5c-1.2-2.1-3.1-3.8-5.4-4.6l-30.7-10.8
		c-2.9-1-6-0.6-8.6,1l-27.6,17.3c-2.6,1.6-4.3,4.3-4.6,7.3l-3.3,29.5h-41l-6.8-8.5c1.1-0.8,2-1.7,2.8-2.9l23.3-37.1
		c1.6-2.6,2-5.8,1-8.6L152,319.8c-1-2.9-3.3-5.1-6.1-6.1l-41.4-14.5c-0.9-0.3-1.9-0.5-2.8-0.5l8.6-37.7l80.7-38.9l80.7,38.9
		l19.9,87.3L267.5,378.5z"/>
	<linearGradient id="SVGID_4_" gradientUnits="userSpaceOnUse" x1="182.925" y1="290.7636" x2="245.4743" y2="290.7636">
		<stop  offset="2.793296e-03" style="stop-color:#0F5159"/>
		<stop  offset="1" style="stop-color:#354F65"/>
	</linearGradient>
	<path class="st3" d="M238.6,272.5c-1-2.9-3.3-5.1-6.1-6.1l-18-6.3c-2.9-1-6-0.6-8.6,1l-16.1,10.1c-2.6,1.6-4.3,4.3-4.6,7.3
		l-2.1,18.9c-0.3,3,0.7,6,2.9,8.2l13.5,13.5c1.9,1.9,4.4,2.9,7.1,2.9c0.4,0,0.7,0,1.1-0.1l18.9-2.1c3-0.3,5.7-2,7.3-4.6l10.1-16.1
		c1.6-2.6,2-5.8,1-8.6L238.6,272.5z M219.4,300.5l-9.4,1.1l-6.7-6.7l1.1-9.4l8-5l8.9,3.1l3.1,8.9L219.4,300.5z"/>
</g>
</svg>
