<?xml version="1.0" encoding="utf-8"?>
<!-- Generator: Adobe Illustrator 25.1.0, SVG Export Plug-In . SVG Version: 6.00 Build 0)  -->
<svg version="1.1" id="Capa_1" xmlns="http://www.w3.org/2000/svg" xmlns:xlink="http://www.w3.org/1999/xlink" x="0px" y="0px"
	 viewBox="0 0 512 512" style="enable-background:new 0 0 512 512;" xml:space="preserve">
<style type="text/css">
	.st0{fill:#2A5159;}
</style>
<path class="st0" d="M508.1,321.1c-3.4-2.6-8-2.8-11.6-0.4c-26.4,17.3-55.6,28.5-86.8,33.3c-11.1,1.7-22.5,2.6-33.9,2.6
	c-16.7,0-33.4-1.9-49.5-5.6c-55.1-12.6-102.7-45.7-134.2-93c-23.9-35.9-36.6-77.9-36.7-121.2v-0.7c0-43.1,12.4-84.8,35.9-120.7
	c2.3-3.6,2.2-8.2-0.4-11.6c-2.6-3.4-7-4.7-11.1-3.4c-51.9,17.2-96.5,49.7-129.1,94C17.5,139.7,0,193.4,0,249.6
	c0,104.8,62.2,199.4,158.4,241c26.2,11.3,54,18.2,82.6,20.6c7,0.6,14.2,0.9,21.4,0.9c37,0,72.8-7.6,106.4-22.5
	c5-2.2,7.3-8.1,5.1-13.2c-2.2-5-8.1-7.3-13.2-5.1c-31,13.8-64,20.7-98.2,20.7c-6.6,0-13.3-0.3-19.8-0.8c-26.4-2.1-52.1-8.5-76.2-19
	C77.4,433.8,20,346.4,20,249.6c0-95.3,55.3-180.5,140.1-219.9c-15.2,30.7-23.6,64.4-24.6,99c-4.3,66.1,26.1,129.2,44.7,147.2
	c32.7,45.8,79.7,78.3,133.8,92.6c35.2,8.9,85.3,7.1,106.9,3.8c21.4-4,41.9-10.9,61.3-20.5c-13.6,29.2-33.1,55.6-57.2,77.4
	c-4.1,3.7-4.4,10-0.7,14.1c3.7,4.1,10,4.4,14.1,0.7c33.6-30.4,58.9-69.2,73.1-112C512.8,328.2,511.5,323.7,508.1,321.1L508.1,321.1z
	"/>
<circle class="st0" cx="399.9" cy="461.3" r="10"/>
</svg>
