<?xml version="1.0" encoding="utf-8"?>
<!-- Generator: Adobe Illustrator 25.1.0, SVG Export Plug-In . SVG Version: 6.00 Build 0)  -->
<svg version="1.1" id="Capa_1" xmlns="http://www.w3.org/2000/svg" xmlns:xlink="http://www.w3.org/1999/xlink" x="0px" y="0px"
	 viewBox="0 0 512 512" style="enable-background:new 0 0 512 512;" xml:space="preserve">
<style type="text/css">
	.st0{fill:url(#SVGID_1_);}
	.st1{fill:url(#SVGID_2_);}
	.st2{fill:url(#SVGID_3_);}
	.st3{fill:url(#SVGID_4_);}
	.st4{fill:url(#SVGID_5_);}
	.st5{fill:url(#SVGID_6_);}
	.st6{fill:url(#SVGID_7_);}
	.st7{fill:url(#SVGID_8_);}
	.st8{fill:url(#SVGID_9_);}
</style>
<g>
	<linearGradient id="SVGID_1_" gradientUnits="userSpaceOnUse" x1="23.5979" y1="240.7176" x2="476.0742" y2="240.7176">
		<stop  offset="2.793296e-03" style="stop-color:#0F5159"/>
		<stop  offset="1" style="stop-color:#354F65"/>
	</linearGradient>
	<path class="st0" d="M123.2,402.2h104.6c4.1,11.6,15.2,20,28.3,20h90c13,0,24.1-8.4,28.3-20h11.8c3.8,0,7.6-0.3,11.3-0.9
		c3.9,12.1,15.2,20.9,28.6,20.9h20c16.5,0,30-13.5,30-30c0-15.5-11.8-28.3-26.9-29.8c4.4-9.3,6.7-19.5,6.7-29.9
		c0-35.2-26.2-64.4-60.1-69.1c-0.8-11.3-3.1-22.4-6.8-33.1c25-17.5,40.2-46.3,40.2-77.1c0-51.8-42.2-94-94-94
		c-49.3,0-89.9,38.2-93.7,86.5c-36.7,7.2-68.3,29.8-87,62.3c-10-3.3-20.5-5-31.2-5c-54.9,0-99.6,44.7-99.6,99.6
		C23.6,357.5,68.3,402.2,123.2,402.2L123.2,402.2z M346.1,402.2h-90c-5.5,0-10-4.5-10-10c0,0,0,0,0,0c0,0,0,0,0,0
		c0-5.5,4.5-10,10-10h90c5.5,0,10,4.5,10,10S351.6,402.2,346.1,402.2z M456.1,392.2c0,5.5-4.5,10-10,10h-20c-5.5,0-10-4.5-10-10
		c0-0.6,0.1-1.3,0.2-1.9c0-0.1,0-0.1,0-0.2c1-4.5,5-7.9,9.8-7.9h20C451.6,382.2,456.1,386.7,456.1,392.2L456.1,392.2z M335.2,79.2
		c40.8,0,74,33.2,74,74c0,22.9-10.6,44.3-28.4,58.2c-11.1-20.8-28.4-38.7-49.8-51c-21.4-12.3-45.6-18.3-69.2-17.3
		C266.8,107.1,297.8,79.2,335.2,79.2L335.2,79.2z M123.2,223c11.1,0,21.8,2.2,31.9,6.7c0,0,0,0,0,0c20.1,8.8,35.8,25.7,43.1,46.4
		c1.5,4.1,5.3,6.7,9.4,6.7c1.1,0,2.2-0.2,3.3-0.6c5.2-1.8,7.9-7.6,6.1-12.8c-7.9-22.5-23.8-41.4-44.3-53.2
		c17.2-28.6,46.3-47.8,79.6-52.1c0.1,0,0.1,0,0.2,0c47.4-6.9,96.8,21.5,114.9,65.9c0,0,0,0,0,0c0,0.1,0.1,0.2,0.1,0.3
		c4.4,10.6,7.2,21.7,8.1,33.1c-9.8,1.5-19.1,5-27.4,10.4c-4.6,3-6,9.2-3,13.8c1.9,3,5.1,4.6,8.4,4.6c1.9,0,3.7-0.5,5.4-1.6
		c8-5.2,17.3-7.9,27-7.9c0,0,0,0,0,0c27.4,0,49.8,22.3,49.8,49.7c0,10.8-3.5,21.2-9.9,29.8c-12.4,0-23.1,7.7-27.6,18.5
		c-4,1-8.1,1.5-12.2,1.5h-11.8c-4.1-11.6-15.2-20-28.3-20h-90c-13,0-24.2,8.4-28.3,20H123.2c-43.9,0-79.6-35.7-79.6-79.6
		C43.6,258.7,79.3,223,123.2,223L123.2,223z"/>
	<linearGradient id="SVGID_2_" gradientUnits="userSpaceOnUse" x1="284.1706" y1="21.6256" x2="310.8299" y2="21.6256">
		<stop  offset="2.793296e-03" style="stop-color:#0F5159"/>
		<stop  offset="1" style="stop-color:#354F65"/>
	</linearGradient>
	<path class="st1" d="M291.2,36c1.3,4.4,5.3,7.3,9.6,7.3c0.9,0,1.8-0.1,2.8-0.4c5.3-1.5,8.4-7.1,6.9-12.4l-6.7-23.2
		c-1.5-5.3-7.1-8.4-12.4-6.9c-5.3,1.5-8.4,7.1-6.9,12.4L291.2,36z"/>
	<linearGradient id="SVGID_3_" gradientUnits="userSpaceOnUse" x1="194.9122" y1="86.8145" x2="236.0923" y2="86.8145">
		<stop  offset="2.793296e-03" style="stop-color:#0F5159"/>
		<stop  offset="1" style="stop-color:#354F65"/>
	</linearGradient>
	<path class="st2" d="M200.1,89.7l21.2,11.7c1.5,0.9,3.2,1.3,4.8,1.3c3.5,0,6.9-1.9,8.8-5.1c2.7-4.8,0.9-10.9-3.9-13.6l-21.2-11.7
		c-4.8-2.7-10.9-0.9-13.6,3.9C193.5,80.9,195.2,87,200.1,89.7L200.1,89.7z"/>
	<linearGradient id="SVGID_4_" gradientUnits="userSpaceOnUse" x1="434.2692" y1="219.6293" x2="475.4491" y2="219.6293">
		<stop  offset="2.793296e-03" style="stop-color:#0F5159"/>
		<stop  offset="1" style="stop-color:#354F65"/>
	</linearGradient>
	<path class="st3" d="M439.4,222.5l21.2,11.7c1.5,0.9,3.2,1.3,4.8,1.3c3.5,0,6.9-1.9,8.8-5.1c2.7-4.8,0.9-10.9-3.9-13.6L449.1,205
		c-4.8-2.7-10.9-0.9-13.6,3.9C432.8,213.7,434.6,219.8,439.4,222.5L439.4,222.5z"/>
	<linearGradient id="SVGID_5_" gradientUnits="userSpaceOnUse" x1="445.1526" y1="115.5518" x2="488.4019" y2="115.5518">
		<stop  offset="2.793296e-03" style="stop-color:#0F5159"/>
		<stop  offset="1" style="stop-color:#354F65"/>
	</linearGradient>
	<path class="st4" d="M455.2,128.9c0.9,0,1.8-0.1,2.8-0.4l23.2-6.7c5.3-1.5,8.4-7.1,6.9-12.4c-1.5-5.3-7.1-8.4-12.4-6.9l-23.2,6.7
		c-5.3,1.5-8.4,7.1-6.9,12.4C446.8,126,450.8,128.9,455.2,128.9z"/>
	<linearGradient id="SVGID_6_" gradientUnits="userSpaceOnUse" x1="385.7108" y1="33.5437" x2="417.4654" y2="33.5437">
		<stop  offset="2.793296e-03" style="stop-color:#0F5159"/>
		<stop  offset="1" style="stop-color:#354F65"/>
	</linearGradient>
	<path class="st5" d="M390.9,52.9c1.5,0.9,3.2,1.3,4.8,1.3c3.5,0,6.9-1.9,8.8-5.1l11.7-21.2c2.7-4.8,0.9-10.9-3.9-13.6
		c-4.8-2.7-10.9-0.9-13.6,3.9L387,39.3C384.3,44.1,386,50.2,390.9,52.9L390.9,52.9z"/>
	<linearGradient id="SVGID_7_" gradientUnits="userSpaceOnUse" x1="305.9232" y1="482.0002" x2="511.998" y2="482.0002">
		<stop  offset="2.793296e-03" style="stop-color:#0F5159"/>
		<stop  offset="1" style="stop-color:#354F65"/>
	</linearGradient>
	<path class="st6" d="M482,452h-5.9c-5.5,0-10,4.5-10,10c0,5.5,4.5,10,10,10h5.9c5.5,0,10,4.5,10,10s-4.5,10-10,10H335.9
		c-5.5,0-10-4.5-10-10s4.5-10,10-10h60.2c5.5,0,10-4.5,10-10c0-5.5-4.5-10-10-10h-60.2c-16.5,0-30,13.5-30,30s13.5,30,30,30H482
		c16.5,0,30-13.5,30-30S498.5,452,482,452L482,452z"/>
	<linearGradient id="SVGID_8_" gradientUnits="userSpaceOnUse" x1="426.0745" y1="462.0003" x2="446.0744" y2="462.0003">
		<stop  offset="2.793296e-03" style="stop-color:#0F5159"/>
		<stop  offset="1" style="stop-color:#354F65"/>
	</linearGradient>
	<circle class="st7" cx="436.1" cy="462" r="10"/>
	<linearGradient id="SVGID_9_" gradientUnits="userSpaceOnUse" x1="1.007074e-03" y1="462.0003" x2="285.9233" y2="462.0003">
		<stop  offset="2.793296e-03" style="stop-color:#0F5159"/>
		<stop  offset="1" style="stop-color:#354F65"/>
	</linearGradient>
	<path class="st8" d="M255.9,452h-51.6c1.1-3.1,1.7-6.5,1.7-10c0-16.5-13.5-30-30-30H30c-16.5,0-30,13.5-30,30c0,16.5,13.5,30,30,30
		h51.6c-1.1,3.1-1.7,6.5-1.7,10c0,16.5,13.5,30,30,30h146.1c16.5,0,30-13.5,30-30S272.5,452,255.9,452L255.9,452z M255.9,492H109.8
		c-5.5,0-10-4.5-10-10s4.5-10,10-10c5.5,0,10-4.5,10-10c0-5.5-4.5-10-10-10H30c-5.5,0-10-4.5-10-10s4.5-10,10-10h146.1
		c5.5,0,10,4.5,10,10s-4.5,10-10,10c-5.5,0-10,4.5-10,10c0,5.5,4.5,10,10,10h79.8c5.5,0,10,4.5,10,10
		C265.9,487.5,261.4,492,255.9,492L255.9,492z"/>
</g>
</svg>
