<?xml version="1.0" encoding="utf-8"?>
<!-- Generator: Adobe Illustrator 25.1.0, SVG Export Plug-In . SVG Version: 6.00 Build 0)  -->
<svg version="1.1" id="Capa_1" xmlns="http://www.w3.org/2000/svg" xmlns:xlink="http://www.w3.org/1999/xlink" x="0px" y="0px"
	 viewBox="0 0 512 512" style="enable-background:new 0 0 512 512;" xml:space="preserve">
<style type="text/css">
	.st0{fill:url(#SVGID_1_);}
	.st1{fill:url(#SVGID_2_);}
	.st2{fill:url(#SVGID_3_);}
	.st3{fill:url(#SVGID_4_);}
	.st4{fill:url(#SVGID_5_);}
</style>
<g>
	<linearGradient id="SVGID_1_" gradientUnits="userSpaceOnUse" x1="210.6652" y1="423.609" x2="301.334" y2="423.609">
		<stop  offset="2.793296e-03" style="stop-color:#0F5159"/>
		<stop  offset="1" style="stop-color:#354F65"/>
	</linearGradient>
	<path class="st0" d="M299.8,395.7c-3-4.7-9.1-6-13.8-3.1l-20,12.7v-23.3c0-5.5-4.5-10-10-10c-5.5,0-10,4.5-10,10v23.3l-20-12.7
		c-4.7-3-10.8-1.6-13.8,3.1s-1.6,10.8,3.1,13.8l22.1,14.1l-22.1,14.1c-4.7,3-6,9.1-3.1,13.8c1.9,3,5.1,4.6,8.4,4.6
		c1.8,0,3.7-0.5,5.4-1.6l20-12.7v23.3c0,5.5,4.5,10,10,10c5.5,0,10-4.5,10-10v-23.3l20,12.7c1.7,1.1,3.5,1.6,5.4,1.6
		c3.3,0,6.5-1.6,8.4-4.6c3-4.7,1.6-10.8-3.1-13.8l-22.1-14.1l22.1-14.1C301.4,406.6,302.7,400.4,299.8,395.7L299.8,395.7z"/>
	<linearGradient id="SVGID_2_" gradientUnits="userSpaceOnUse" x1="60.6652" y1="423.609" x2="151.3341" y2="423.609">
		<stop  offset="2.793296e-03" style="stop-color:#0F5159"/>
		<stop  offset="1" style="stop-color:#354F65"/>
	</linearGradient>
	<path class="st1" d="M149.8,395.7c-3-4.7-9.1-6-13.8-3.1l-20,12.7v-23.3c0-5.5-4.5-10-10-10s-10,4.5-10,10v23.3l-20-12.7
		c-4.7-3-10.8-1.6-13.8,3.1c-3,4.7-1.6,10.8,3.1,13.8l22.1,14.1l-22.1,14.1c-4.7,3-6,9.1-3.1,13.8c1.9,3,5.1,4.6,8.4,4.6
		c1.8,0,3.7-0.5,5.4-1.6l20-12.7v23.3c0,5.5,4.5,10,10,10s10-4.5,10-10v-23.3l20,12.7c1.7,1.1,3.5,1.6,5.4,1.6
		c3.3,0,6.5-1.6,8.4-4.6c3-4.7,1.6-10.8-3.1-13.8l-22.1-14.1l22.1-14.1C151.4,406.6,152.7,400.4,149.8,395.7L149.8,395.7z"/>
	<linearGradient id="SVGID_3_" gradientUnits="userSpaceOnUse" x1="360.6652" y1="423.609" x2="451.334" y2="423.609">
		<stop  offset="2.793296e-03" style="stop-color:#0F5159"/>
		<stop  offset="1" style="stop-color:#354F65"/>
	</linearGradient>
	<path class="st2" d="M449.8,395.7c-3-4.7-9.1-6-13.8-3.1l-20,12.7v-23.3c0-5.5-4.5-10-10-10s-10,4.5-10,10v23.3l-20-12.7
		c-4.7-3-10.8-1.6-13.8,3.1c-3,4.7-1.6,10.8,3.1,13.8l22.1,14.1l-22.1,14.1c-4.7,3-6,9.1-3.1,13.8c1.9,3,5.1,4.6,8.4,4.6
		c1.8,0,3.7-0.5,5.4-1.6l20-12.7v23.3c0,5.5,4.5,10,10,10s10-4.5,10-10v-23.3l20,12.7c1.7,1.1,3.5,1.6,5.4,1.6
		c3.3,0,6.5-1.6,8.4-4.6c3-4.7,1.6-10.8-3.1-13.8l-22.1-14.1l22.1-14.1C451.4,406.6,452.7,400.4,449.8,395.7L449.8,395.7z"/>
	<linearGradient id="SVGID_4_" gradientUnits="userSpaceOnUse" x1="0" y1="189.5" x2="512" y2="189.5">
		<stop  offset="2.793296e-03" style="stop-color:#0F5159"/>
		<stop  offset="1" style="stop-color:#354F65"/>
	</linearGradient>
	<path class="st3" d="M440.4,180.1c-4.9-79.8-71.3-143.2-152.3-143.2c-29.2,0-57.5,8.3-82,23.9c-21.2,13.5-38.7,32-51,53.8
		c-12.2-4.2-25-6.4-38.2-6.4c-64.5,0-117,52.5-117,117s52.5,117,117,117h203.4c5.5,0,10-4.5,10-10s-4.5-10-10-10H117
		c-53.5,0-97-43.5-97-97s43.5-97,97-97c13.5,0,26.5,2.7,38.8,8.1c0,0,0,0,0,0c24.5,10.7,43.6,31.3,52.5,56.5
		c1.5,4.1,5.3,6.7,9.4,6.7c1.1,0,2.2-0.2,3.3-0.6c5.2-1.8,7.9-7.6,6.1-12.8c-9.5-27-28.8-49.6-53.7-63.4
		c23.7-40.9,66.8-65.9,114.6-65.9c70,0,127.5,54.5,132.3,123.3c-12,1.5-23.5,5.7-33.8,12.3c-4.6,3-6,9.2-3,13.8
		c1.9,3,5.1,4.6,8.4,4.6c1.9,0,3.7-0.5,5.4-1.6c9.9-6.4,21.4-9.8,33.2-9.8c33.8,0,61.3,27.5,61.3,61.3c0,33.8-27.5,61.3-61.3,61.3
		h-30.4c-5.5,0-10,4.5-10,10s4.5,10,10,10h30.4c44.8,0,81.3-36.5,81.3-81.3C512,219.3,480.7,184.9,440.4,180.1L440.4,180.1z"/>
	<linearGradient id="SVGID_5_" gradientUnits="userSpaceOnUse" x1="350.34" y1="332.109" x2="370.34" y2="332.109">
		<stop  offset="2.793296e-03" style="stop-color:#0F5159"/>
		<stop  offset="1" style="stop-color:#354F65"/>
	</linearGradient>
	<circle class="st4" cx="360.3" cy="332.1" r="10"/>
</g>
</svg>
