<?xml version="1.0" encoding="utf-8"?>
<!-- Generator: Adobe Illustrator 25.1.0, SVG Export Plug-In . SVG Version: 6.00 Build 0)  -->
<svg version="1.1" id="Capa_1" xmlns="http://www.w3.org/2000/svg" xmlns:xlink="http://www.w3.org/1999/xlink" x="0px" y="0px"
	 viewBox="0 0 512 512" style="enable-background:new 0 0 512 512;" xml:space="preserve">
<style type="text/css">
	.st0{fill:url(#SVGID_1_);}
	.st1{fill:url(#SVGID_2_);}
	.st2{fill:url(#SVGID_3_);}
	.st3{fill:url(#SVGID_4_);}
	.st4{fill:url(#SVGID_5_);}
	.st5{fill:url(#SVGID_6_);}
	.st6{fill:url(#SVGID_7_);}
	.st7{fill:url(#SVGID_8_);}
	.st8{fill:url(#SVGID_9_);}
	.st9{fill:url(#SVGID_10_);}
	.st10{fill:url(#SVGID_11_);}
	.st11{fill:url(#SVGID_12_);}
	.st12{fill:url(#SVGID_13_);}
	.st13{fill:url(#SVGID_14_);}
	.st14{fill:url(#SVGID_15_);}
	.st15{fill:url(#SVGID_16_);}
	.st16{fill:url(#SVGID_17_);}
	.st17{fill:url(#SVGID_18_);}
</style>
<g>
	<g>
		<linearGradient id="SVGID_1_" gradientUnits="userSpaceOnUse" x1="86.996" y1="256.0005" x2="425.004" y2="256.0005">
			<stop  offset="2.793296e-03" style="stop-color:#0F5159"/>
			<stop  offset="1" style="stop-color:#354F65"/>
		</linearGradient>
		<path class="st0" d="M256,425c-93.2,0-169-75.8-169-169S162.8,87,256,87c42.6,0,83.4,15.9,114.7,44.8c4.1,3.7,4.3,10.1,0.6,14.1
			c-3.7,4.1-10.1,4.3-14.1,0.6C329.5,121,293.6,107,256,107c-82.2,0-149,66.8-149,149s66.8,149,149,149s149-66.8,149-149
			c0-15.9-2.5-31.5-7.4-46.4c-1.7-5.2,1.1-10.9,6.4-12.6c5.2-1.7,10.9,1.1,12.6,6.4c5.5,16.9,8.4,34.7,8.4,52.6
			C425,349.2,349.2,425,256,425L256,425z"/>
	</g>
	<g>
		<linearGradient id="SVGID_2_" gradientUnits="userSpaceOnUse" x1="246.0001" y1="32.6811" x2="265.9999" y2="32.6811">
			<stop  offset="2.793296e-03" style="stop-color:#0F5159"/>
			<stop  offset="1" style="stop-color:#354F65"/>
		</linearGradient>
		<path class="st1" d="M256,57c-5.5,0-10-4.5-10-10V18.4c0-5.5,4.5-10,10-10c5.5,0,10,4.5,10,10V47C266,52.5,261.5,57,256,57z"/>
	</g>
	<g>
		<linearGradient id="SVGID_3_" gradientUnits="userSpaceOnUse" x1="77.9673" y1="98.0895" x2="118.2124" y2="98.0895">
			<stop  offset="2.793296e-03" style="stop-color:#0F5159"/>
			<stop  offset="1" style="stop-color:#354F65"/>
		</linearGradient>
		<path class="st2" d="M108.2,118.2c-2.6,0-5.1-1-7.1-2.9L80.9,95c-3.9-3.9-3.9-10.2,0-14.1c3.9-3.9,10.2-3.9,14.1,0l20.2,20.2
			c3.9,3.9,3.9,10.2,0,14.1C113.3,117.2,110.8,118.2,108.2,118.2z"/>
	</g>
	<g>
		<linearGradient id="SVGID_4_" gradientUnits="userSpaceOnUse" x1="8.3649" y1="256" x2="56.9953" y2="256">
			<stop  offset="2.793296e-03" style="stop-color:#0F5159"/>
			<stop  offset="1" style="stop-color:#354F65"/>
		</linearGradient>
		<path class="st3" d="M47,266H18.4c-5.5,0-10-4.5-10-10s4.5-10,10-10H47c5.5,0,10,4.5,10,10C57,261.5,52.5,266,47,266z"/>
	</g>
	<g>
		<linearGradient id="SVGID_5_" gradientUnits="userSpaceOnUse" x1="77.9673" y1="413.9118" x2="118.2124" y2="413.9118">
			<stop  offset="2.793296e-03" style="stop-color:#0F5159"/>
			<stop  offset="1" style="stop-color:#354F65"/>
		</linearGradient>
		<path class="st4" d="M88,434c-2.6,0-5.1-1-7.1-2.9c-3.9-3.9-3.9-10.2,0-14.1l20.2-20.2c3.9-3.9,10.2-3.9,14.1,0
			c3.9,3.9,3.9,10.2,0,14.1L95,431.1C93.1,433.1,90.5,434,88,434z"/>
	</g>
	<g>
		<linearGradient id="SVGID_6_" gradientUnits="userSpaceOnUse" x1="246.0001" y1="479.3199" x2="265.9999" y2="479.3199">
			<stop  offset="2.793296e-03" style="stop-color:#0F5159"/>
			<stop  offset="1" style="stop-color:#354F65"/>
		</linearGradient>
		<path class="st5" d="M256,503.6c-5.5,0-10-4.5-10-10V465c0-5.5,4.5-10,10-10c5.5,0,10,4.5,10,10v28.6
			C266,499.2,261.5,503.6,256,503.6z"/>
	</g>
	<g>
		<linearGradient id="SVGID_7_" gradientUnits="userSpaceOnUse" x1="393.7886" y1="413.9118" x2="434.0337" y2="413.9118">
			<stop  offset="2.793296e-03" style="stop-color:#0F5159"/>
			<stop  offset="1" style="stop-color:#354F65"/>
		</linearGradient>
		<path class="st6" d="M424,434c-2.6,0-5.1-1-7.1-2.9l-20.2-20.2c-3.9-3.9-3.9-10.2,0-14.1c3.9-3.9,10.2-3.9,14.1,0l20.2,20.2
			c3.9,3.9,3.9,10.2,0,14.1C429.2,433.1,426.6,434,424,434z"/>
	</g>
	<g>
		<linearGradient id="SVGID_8_" gradientUnits="userSpaceOnUse" x1="455.0047" y1="256" x2="503.6351" y2="256">
			<stop  offset="2.793296e-03" style="stop-color:#0F5159"/>
			<stop  offset="1" style="stop-color:#354F65"/>
		</linearGradient>
		<path class="st7" d="M493.6,266H465c-5.5,0-10-4.5-10-10s4.5-10,10-10h28.6c5.5,0,10,4.5,10,10C503.6,261.5,499.2,266,493.6,266z"
			/>
	</g>
	<g>
		<linearGradient id="SVGID_9_" gradientUnits="userSpaceOnUse" x1="393.7886" y1="98.089" x2="434.0327" y2="98.089">
			<stop  offset="2.793296e-03" style="stop-color:#0F5159"/>
			<stop  offset="1" style="stop-color:#354F65"/>
		</linearGradient>
		<path class="st8" d="M403.8,118.2c-2.6,0-5.1-1-7.1-2.9c-3.9-3.9-3.9-10.2,0-14.1L417,80.9c3.9-3.9,10.2-3.9,14.1,0
			c3.9,3.9,3.9,10.2,0,14.1l-20.2,20.2C408.9,117.2,406.3,118.2,403.8,118.2L403.8,118.2z"/>
	</g>
	<g>
		<linearGradient id="SVGID_10_" gradientUnits="userSpaceOnUse" x1="325.9792" y1="36.4545" x2="367.8968" y2="36.4545">
			<stop  offset="2.793296e-03" style="stop-color:#0F5159"/>
			<stop  offset="1" style="stop-color:#354F65"/>
		</linearGradient>
		<path class="st9" d="M336,72.9c-1.3,0-2.6-0.2-3.8-0.8c-5.1-2.1-7.5-8-5.4-13.1l21.9-52.9c2.1-5.1,8-7.5,13.1-5.4
			c5.1,2.1,7.5,8,5.4,13.1l-21.9,52.9C343.6,70.6,339.9,72.9,336,72.9z"/>
	</g>
	<g>
		<linearGradient id="SVGID_11_" gradientUnits="userSpaceOnUse" x1="144.1024" y1="36.4542" x2="186.0198" y2="36.4542">
			<stop  offset="2.793296e-03" style="stop-color:#0F5159"/>
			<stop  offset="1" style="stop-color:#354F65"/>
		</linearGradient>
		<path class="st10" d="M176,72.9c-3.9,0-7.6-2.3-9.2-6.2l-21.9-52.9c-2.1-5.1,0.3-11,5.4-13.1c5.1-2.1,11,0.3,13.1,5.4l21.9,52.9
			c2.1,5.1-0.3,11-5.4,13.1C178.6,72.7,177.3,72.9,176,72.9z"/>
	</g>
	<g>
		<linearGradient id="SVGID_12_" gradientUnits="userSpaceOnUse" x1="-9.760757e-05" y1="165.0615" x2="72.9072" y2="165.0615">
			<stop  offset="2.793296e-03" style="stop-color:#0F5159"/>
			<stop  offset="1" style="stop-color:#354F65"/>
		</linearGradient>
		<path class="st11" d="M62.9,186c-1.3,0-2.6-0.2-3.8-0.8L6.2,163.3c-5.1-2.1-7.5-8-5.4-13.1c2.1-5.1,8-7.5,13.1-5.4l52.9,21.9
			c5.1,2.1,7.5,8,5.4,13.1C70.5,183.7,66.8,186,62.9,186L62.9,186z"/>
	</g>
	<g>
		<linearGradient id="SVGID_13_" gradientUnits="userSpaceOnUse" x1="3.610201e-05" y1="346.9388" x2="72.9071" y2="346.9388">
			<stop  offset="2.793296e-03" style="stop-color:#0F5159"/>
			<stop  offset="1" style="stop-color:#354F65"/>
		</linearGradient>
		<path class="st12" d="M10,367.9c-3.9,0-7.6-2.3-9.2-6.2c-2.1-5.1,0.3-11,5.4-13.1l52.9-21.9c5.1-2.1,11,0.3,13.1,5.4
			c2.1,5.1-0.3,11-5.4,13.1l-52.9,21.9C12.6,367.7,11.3,367.9,10,367.9z"/>
	</g>
	<g>
		<linearGradient id="SVGID_14_" gradientUnits="userSpaceOnUse" x1="144.1022" y1="475.5467" x2="186.0199" y2="475.5467">
			<stop  offset="2.793296e-03" style="stop-color:#0F5159"/>
			<stop  offset="1" style="stop-color:#354F65"/>
		</linearGradient>
		<path class="st13" d="M154.1,512c-1.3,0-2.6-0.2-3.8-0.8c-5.1-2.1-7.5-8-5.4-13.1l21.9-52.9c2.1-5.1,8-7.5,13.1-5.4
			c5.1,2.1,7.5,8,5.4,13.1l-21.9,52.9C161.7,509.7,158,512,154.1,512L154.1,512z"/>
	</g>
	<g>
		<linearGradient id="SVGID_15_" gradientUnits="userSpaceOnUse" x1="325.9792" y1="475.5464" x2="367.8977" y2="475.5464">
			<stop  offset="2.793296e-03" style="stop-color:#0F5159"/>
			<stop  offset="1" style="stop-color:#354F65"/>
		</linearGradient>
		<path class="st14" d="M357.9,512c-3.9,0-7.6-2.3-9.2-6.2l-21.9-52.9c-2.1-5.1,0.3-11,5.4-13.1c5.1-2.1,11,0.3,13.1,5.4l21.9,52.9
			c2.1,5.1-0.3,11-5.4,13.1C360.5,511.8,359.2,512,357.9,512z"/>
	</g>
	<g>
		<linearGradient id="SVGID_16_" gradientUnits="userSpaceOnUse" x1="439.0918" y1="346.9391" x2="511.9991" y2="346.9391">
			<stop  offset="2.793296e-03" style="stop-color:#0F5159"/>
			<stop  offset="1" style="stop-color:#354F65"/>
		</linearGradient>
		<path class="st15" d="M502,367.9c-1.3,0-2.6-0.2-3.8-0.8l-52.9-21.9c-5.1-2.1-7.5-8-5.4-13.1c2.1-5.1,8-7.5,13.1-5.4l52.9,21.9
			c5.1,2.1,7.5,8,5.4,13.1C509.6,365.6,505.9,367.9,502,367.9L502,367.9z"/>
	</g>
	<g>
		<linearGradient id="SVGID_17_" gradientUnits="userSpaceOnUse" x1="439.0919" y1="165.0609" x2="511.9999" y2="165.0609">
			<stop  offset="2.793296e-03" style="stop-color:#0F5159"/>
			<stop  offset="1" style="stop-color:#354F65"/>
		</linearGradient>
		<path class="st16" d="M449.1,186c-3.9,0-7.6-2.3-9.2-6.2c-2.1-5.1,0.3-11,5.4-13.1l52.9-21.9c5.1-2.1,11,0.3,13.1,5.4
			s-0.3,11-5.4,13.1l-52.9,21.9C451.7,185.8,450.4,186,449.1,186L449.1,186z"/>
	</g>
	<g>
		<linearGradient id="SVGID_18_" gradientUnits="userSpaceOnUse" x1="379.8066" y1="170.094" x2="399.8063" y2="170.094">
			<stop  offset="2.793296e-03" style="stop-color:#0F5159"/>
			<stop  offset="1" style="stop-color:#354F65"/>
		</linearGradient>
		<circle class="st17" cx="389.8" cy="170.1" r="10"/>
	</g>
</g>
</svg>
