<?xml version="1.0" encoding="utf-8"?>
<!-- Generator: Adobe Illustrator 25.1.0, SVG Export Plug-In . SVG Version: 6.00 Build 0)  -->
<svg version="1.1" id="Ebene_1" xmlns="http://www.w3.org/2000/svg" xmlns:xlink="http://www.w3.org/1999/xlink" x="0px" y="0px"
	 viewBox="0 0 64.5 64.5" style="enable-background:new 0 0 64.5 64.5;" xml:space="preserve">
<style type="text/css">
	.st0{fill:url(#SVGID_1_);}
	.st1{fill:#FFFFFF;}
</style>
<g id="Ebene_3">
</g>
<g>
	
		<linearGradient id="SVGID_1_" gradientUnits="userSpaceOnUse" x1="17.9726" y1="9.0171" x2="46.4836" y2="58.3997" gradientTransform="matrix(1 0 0 -1 0 66)">
		<stop  offset="0" style="stop-color:#2D4F61"/>
		<stop  offset="1" style="stop-color:#17515C"/>
	</linearGradient>
	<path class="st0" d="M60.8,32.3c0,0.6,0,1.2-0.1,1.8v0.1c0,0.4,0,0.7-0.1,1.1c0,0.1,0,0.1,0,0.2c-0.2,1.5-0.4,3-0.9,4.4V40l0,0
		c-3.4,12-14.4,20.7-27.5,20.7c-9.6,0-18-4.7-23.2-11.9c-1.8-2.5-3.3-5.4-4.2-8.5c0,0,0,0,0-0.1c-0.8-2.6-1.2-5.3-1.2-8
		c0-2.4,0.3-4.7,0.8-6.8l0,0C7.7,13,18.9,3.8,32.2,3.8c1,0,2.1,0.1,3.1,0.2l0,0c1.5,0.1,3,0.4,4.4,0.8h0.1c4.5,1.2,8.4,3.5,11.8,6.6
		c3.9,3.6,6.8,8.3,8.2,13.6v0.1C60.5,27.4,60.8,29.8,60.8,32.3z"/>
	<path class="st1" d="M39.8,4.8L28.4,54.7h-4.7l-6.4-12l4.6-0.1l3.3,6.1L35.3,3.9C36.8,4.1,38.3,4.4,39.8,4.8z"/>
	<g id="Ebene_1_1_">
		<g>
			<path class="st1" d="M12.4,18.5l-1.5,7.7c-0.8-1-1.9-1.6-3.2-1.6c-1.2,0-2.3,0.3-3.2,0.9l0,0c-0.5,2.1-0.8,4.4-0.8,6.8
				c0,2.8,0.4,5.5,1.2,8c0.2,0,0.5,0.1,0.7,0.1c1.4,0.1,2.7-0.6,3.8-1.9l-0.2,1.6h4.1L17,18.5C17,18.5,12.4,18.5,12.4,18.5z
				 M9.4,35.6c-0.7,0.9-1.5,1.3-2.4,1.3c-1.1-0.1-1.6-0.8-1.6-2.4c0-0.5,0-1,0.1-1.6c0.2-1.5,0.5-2.7,0.9-3.3
				c0.5-0.7,1.2-1.1,2.1-1.1c1,0,1.6,0.4,1.9,1.3L9.4,35.6z"/>
			<path class="st1" d="M27,29.2c-0.5-0.1-1-0.1-1.4-0.1c-1.4,0-2.4,0.4-3.2,1.4l-1.7,9.6h-4.6l2.6-15.2H23l-0.4,2
				c1-1.5,2.2-2.3,3.5-2.3c0.4,0,0.9,0.1,1.4,0.2L27,29.2z"/>
			<path class="st1" d="M44,35.3c0.1-0.6-0.4-1.1-1.4-1.4l-1-0.3c-1.6-0.4-2.8-1-3.6-1.8s-1.1-1.7-1.1-2.8c0-1.5,0.7-2.7,1.9-3.6
				c1.3-0.9,2.8-1.4,4.6-1.3c1.8,0,3.2,0.5,4.4,1.4c1.1,0.9,1.7,2.1,1.7,3.6h-4.6c0-1.2-0.5-1.8-1.6-1.8c-0.5,0-0.9,0.1-1.3,0.4
				c-0.4,0.3-0.6,0.6-0.7,1.1c-0.2,0.8,0.5,1.3,2,1.6c1.3,0.3,2.3,0.7,3,1.1s1.3,0.9,1.6,1.5c0.3,0.6,0.5,1.3,0.5,2.2
				c0,0.9-0.3,1.7-0.9,2.5c-0.6,0.7-1.4,1.3-2.5,1.7S42.7,40,41.5,40c-1.1,0-2.1-0.2-3.1-0.7c-0.9-0.5-1.7-1.1-2.2-1.8
				c-0.5-0.8-0.8-1.7-0.8-2.7h4.3c0,1.4,0.7,2,2,2c0.6,0,1.1-0.1,1.5-0.4C43.5,36.1,43.8,35.7,44,35.3z"/>
			<path class="st1" d="M59.8,25.1c-0.6-0.2-1.2-0.3-1.8-0.3c-2.2-0.1-4,0.6-5.5,2.1c-1.5,1.4-2.3,3.4-2.6,5.9v0.4
				c-0.2,1.3,0.1,2.6,0.6,3.7c0.5,1.1,1.3,2,2.4,2.6c1,0.7,2.2,1,3.6,1v0.1h0.1c1.2,0,2.1-0.2,3.1-0.5l0,0V40
				c0.5-1.4,0.7-2.9,0.9-4.4l-0.1-0.1c-1.1,1-2.3,1.5-3.6,1.5c-0.8,0-1.5-0.3-1.9-0.8c-0.5-0.5-0.7-1.1-0.7-1.9h6.4v-0.1
				c0.1-0.6,0.1-1.2,0.1-1.8C60.8,29.8,60.5,27.4,59.8,25.1z M59.3,30.7l-0.1,0.4h-4.6c0.4-1.1,0.8-1.8,1.3-2.2
				c0.5-0.4,1-0.6,1.7-0.6c1,0.1,1.6,0.5,1.7,1.5C59.5,30.1,59.5,30.4,59.3,30.7z"/>
		</g>
	</g>
</g>
</svg>
