<svg xmlns="http://www.w3.org/2000/svg" viewBox="0 0 178.81 178.81"><defs><style>.cls-1{opacity:0.73;}.cls-2{opacity:0;}.cls-3{fill:none;}.cls-4{opacity:0.05;}.cls-5{fill:#df595a;}.cls-6{opacity:0.09;}.cls-7{opacity:0.14;}.cls-8{opacity:0.18;}.cls-9{opacity:0.23;}.cls-10{opacity:0.27;}.cls-11{opacity:0.32;}.cls-12{opacity:0.36;}.cls-13{opacity:0.41;}.cls-14{opacity:0.45;}.cls-15{opacity:0.5;}.cls-16{opacity:0.55;}.cls-17{opacity:0.59;}.cls-18{opacity:0.64;}.cls-19{opacity:0.68;}.cls-20{opacity:0.73;}.cls-21{opacity:0.77;}.cls-22{opacity:0.82;}.cls-23{opacity:0.86;}.cls-24{opacity:0.91;}.cls-25{opacity:0.95;}</style></defs><g id="Folie_1" data-name="Folie 1"><g class="cls-1"><g class="cls-2"><circle class="cls-3" cx="89.41" cy="89.41" r="89.41"/></g><g class="cls-4"><path class="cls-5" d="M89.41,175.76A86.32,86.32,0,0,1,28.35,28.35,86.35,86.35,0,1,1,123,169,85.72,85.72,0,0,1,89.41,175.76Zm0-172.61a86.26,86.26,0,1,0,86.26,86.26A86.35,86.35,0,0,0,89.41,3.15Z"/></g><g class="cls-6"><path class="cls-5" d="M89.41,172.7A83.32,83.32,0,0,1,57,12.66a83.32,83.32,0,0,1,64.85,153.5A82.84,82.84,0,0,1,89.41,172.7Zm0-166.41a83.12,83.12,0,1,0,83.11,83.12A83.22,83.22,0,0,0,89.41,6.29Z"/></g><g class="cls-7"><path class="cls-5" d="M89.41,169.65a80.24,80.24,0,0,1-56.74-137A80.24,80.24,0,0,1,146.15,146.15,79.75,79.75,0,0,1,89.41,169.65Zm0-160.21a80,80,0,1,0,80,80A80.05,80.05,0,0,0,89.41,9.44Z"/></g><g class="cls-8"><path class="cls-5" d="M89.41,166.59a77.19,77.19,0,1,1,77.18-77.18A77.27,77.27,0,0,1,89.41,166.59Zm0-154a76.83,76.83,0,1,0,76.82,76.83A76.92,76.92,0,0,0,89.41,12.58Z"/></g><g class="cls-9"><path class="cls-5" d="M89.41,163.54a74.14,74.14,0,1,1,74.13-74.13A74.22,74.22,0,0,1,89.41,163.54Zm0-147.81a73.68,73.68,0,1,0,73.68,73.68A73.76,73.76,0,0,0,89.41,15.73Z"/></g><g class="cls-10"><path class="cls-5" d="M89.41,160.49a71.08,71.08,0,1,1,71.08-71.08A71.16,71.16,0,0,1,89.41,160.49Zm0-141.62a70.54,70.54,0,1,0,70.53,70.54A70.61,70.61,0,0,0,89.41,18.87Z"/></g><g class="cls-11"><path class="cls-5" d="M89.41,157.43a68,68,0,1,1,68-68A68.11,68.11,0,0,1,89.41,157.43ZM89.41,22a67.39,67.39,0,1,0,67.38,67.39A67.47,67.47,0,0,0,89.41,22Z"/></g><g class="cls-12"><path class="cls-5" d="M89.41,154.38a65,65,0,1,1,65-65A65,65,0,0,1,89.41,154.38Zm0-129.22a64.25,64.25,0,1,0,64.24,64.25A64.32,64.32,0,0,0,89.41,25.16Z"/></g><g class="cls-13"><path class="cls-5" d="M89.41,151.32a61.92,61.92,0,1,1,61.91-61.91A62,62,0,0,1,89.41,151.32Zm0-123a61.1,61.1,0,1,0,61.09,61.1A61.17,61.17,0,0,0,89.41,28.31Z"/></g><g class="cls-14"><path class="cls-5" d="M89.41,148.27a58.86,58.86,0,1,1,58.86-58.86A58.93,58.93,0,0,1,89.41,148.27Zm0-116.82a58,58,0,1,0,58,58A58,58,0,0,0,89.41,31.45Z"/></g><g class="cls-15"><path class="cls-5" d="M89.41,145.21a55.81,55.81,0,1,1,55.8-55.8A55.86,55.86,0,0,1,89.41,145.21Zm0-110.61a54.81,54.81,0,1,0,54.8,54.81A54.88,54.88,0,0,0,89.41,34.6Z"/></g><g class="cls-16"><path class="cls-5" d="M89.41,142.16a52.75,52.75,0,1,1,52.75-52.75A52.81,52.81,0,0,1,89.41,142.16Zm0-104.41a51.66,51.66,0,1,0,51.66,51.66A51.71,51.71,0,0,0,89.41,37.75Z"/></g><g class="cls-17"><path class="cls-5" d="M89.41,139.1A49.7,49.7,0,1,1,139.1,89.41,49.75,49.75,0,0,1,89.41,139.1Zm0-98.21a48.52,48.52,0,1,0,48.51,48.52A48.58,48.58,0,0,0,89.41,40.89Z"/></g><g class="cls-18"><path class="cls-5" d="M89.41,136.05a46.65,46.65,0,1,1,46.64-46.64A46.7,46.7,0,0,1,89.41,136.05Zm0-92a45.37,45.37,0,1,0,45.37,45.37A45.42,45.42,0,0,0,89.41,44Z"/></g><g class="cls-19"><path class="cls-5" d="M89.41,133A43.59,43.59,0,1,1,133,89.41,43.63,43.63,0,0,1,89.41,133Zm0-85.81a42.23,42.23,0,1,0,42.22,42.23A42.27,42.27,0,0,0,89.41,47.18Z"/></g><g class="cls-20"><path class="cls-5" d="M89.41,129.94a40.54,40.54,0,1,1,40.53-40.53A40.58,40.58,0,0,1,89.41,129.94Zm0-79.61a39.08,39.08,0,1,0,39.08,39.08A39.12,39.12,0,0,0,89.41,50.33Z"/></g><g class="cls-21"><path class="cls-5" d="M89.41,126.88a37.48,37.48,0,1,1,37.48-37.47A37.52,37.52,0,0,1,89.41,126.88Zm0-73.41a35.94,35.94,0,1,0,35.93,35.94A36,36,0,0,0,89.41,53.47Z"/></g><g class="cls-22"><path class="cls-5" d="M89.41,123.83a34.43,34.43,0,1,1,34.42-34.42A34.46,34.46,0,0,1,89.41,123.83Zm0-67.21a32.79,32.79,0,1,0,32.78,32.79A32.83,32.83,0,0,0,89.41,56.62Z"/></g><g class="cls-23"><path class="cls-5" d="M89.41,120.78a31.37,31.37,0,1,1,31.37-31.37A31.41,31.41,0,0,1,89.41,120.78Zm0-61a29.65,29.65,0,1,0,29.64,29.65A29.68,29.68,0,0,0,89.41,59.76Z"/></g><g class="cls-24"><path class="cls-5" d="M89.41,117.72a28.32,28.32,0,1,1,28.31-28.31A28.34,28.34,0,0,1,89.41,117.72Zm0-54.81a26.5,26.5,0,1,0,26.49,26.5A26.53,26.53,0,0,0,89.41,62.91Z"/></g><g class="cls-25"><path class="cls-5" d="M89.41,114.67a25.26,25.26,0,1,1,25.26-25.26A25.29,25.29,0,0,1,89.41,114.67Zm0-48.61a23.35,23.35,0,1,0,23.35,23.35A23.37,23.37,0,0,0,89.41,66.06Z"/></g><path class="cls-5" d="M89.41,111.61a22.21,22.21,0,1,1,22.2-22.2A22.23,22.23,0,0,1,89.41,111.61Zm0-42.41a20.21,20.21,0,1,0,20.2,20.21A20.23,20.23,0,0,0,89.41,69.2Z"/></g><circle class="cls-5" cx="89.41" cy="89.41" r="12.4"/></g></svg>