<?xml version="1.0" encoding="utf-8"?>
<!-- Generator: Adobe Illustrator 25.2.0, SVG Export Plug-In . SVG Version: 6.00 Build 0)  -->
<svg version="1.1" id="Ebene_1" xmlns="http://www.w3.org/2000/svg" xmlns:xlink="http://www.w3.org/1999/xlink" x="0px" y="0px"
	 viewBox="0 0 64.5 64.5" style="enable-background:new 0 0 64.5 64.5;" xml:space="preserve">
<style type="text/css">
	.st0{fill:#FFFFFF;stroke:#FFFFFF;stroke-width:6;stroke-miterlimit:10;}
</style>
<g id="Ebene_3">
</g>
<path class="st0" d="M5.6,59.1L5.6,59.1c-1.6-1.6-1.6-4.2,0-5.8L53.4,5.5c1.6-1.6,4.2-1.6,5.8,0l0,0c1.6,1.6,1.6,4.2,0,5.8
	L11.4,59.1C9.8,60.7,7.2,60.7,5.6,59.1z"/>
<path class="st0" d="M59.2,59.1L59.2,59.1c-1.6,1.6-4.2,1.6-5.8,0L5.6,11.3C4,9.7,4,7.1,5.6,5.5l0,0c1.6-1.6,4.2-1.6,5.8,0
	l47.8,47.8C60.8,54.9,60.8,57.5,59.2,59.1z"/>
</svg>
