<?xml version="1.0" encoding="utf-8"?>
<!-- Generator: Adobe Illustrator 25.2.0, SVG Export Plug-In . SVG Version: 6.00 Build 0)  -->
<svg version="1.1" xmlns="http://www.w3.org/2000/svg" xmlns:xlink="http://www.w3.org/1999/xlink" x="0px" y="0px"
	 viewBox="0 0 1005.8 572" style="enable-background:new 0 0 1005.8 572;" xml:space="preserve">
<style type="text/css">
	.st0{fill:url(#SVGID_2_);}
	.st1{fill:url(#SVGID_3_);}
	.st2{fill:url(#SVGID_4_);}
	.st3{fill:url(#SVGID_5_);}
	.st4{fill:#F1B21E;}
	.st5{fill:#CE383F;}
	.st6{fill:#FBD473;}
	.st7{fill:#040409;}
	.st8{fill:#EEF0DE;}
	.st9{fill:url(#SVGID_6_);}
	.st10{fill:none;}
	.st11{fill:#F1F1F1;}
	.st12{fill:url(#SVGID_7_);stroke:#FFFFFF;stroke-width:3;stroke-miterlimit:10;}
	.st13{fill:#FFFFFF;}
	.st14{fill:url(#SVGID_8_);}
	.st15{fill:url(#SVGID_9_);}
	.st16{fill:#F2EFEF;}
	.st17{fill:#E52339;}
	.st18{fill:#373636;}
	.st19{fill:url(#SVGID_10_);}
	.st20{fill:url(#SVGID_11_);}
	.st21{fill:url(#SVGID_13_);}
	.st22{fill:url(#SVGID_14_);}
	.st23{clip-path:url(#SVGID_15_);fill:url(#SVGID_16_);}
	.st24{opacity:0.73;}
	.st25{opacity:0;}
	.st26{opacity:4.545455e-02;}
	.st27{fill:#DE595A;}
	.st28{opacity:9.090909e-02;}
	.st29{opacity:0.1364;}
	.st30{opacity:0.1818;}
	.st31{opacity:0.2273;}
	.st32{opacity:0.2727;}
	.st33{opacity:0.3182;}
	.st34{opacity:0.3636;}
	.st35{opacity:0.4091;}
	.st36{opacity:0.4545;}
	.st37{opacity:0.5;}
	.st38{opacity:0.5455;}
	.st39{opacity:0.5909;}
	.st40{opacity:0.6364;}
	.st41{opacity:0.6818;}
	.st42{opacity:0.7273;}
	.st43{opacity:0.7727;}
	.st44{opacity:0.8182;}
	.st45{opacity:0.8636;}
	.st46{opacity:0.9091;}
	.st47{opacity:0.9545;}
	.st48{fill:url(#Hintergrund_8_);}
	.st49{fill:none;stroke:#FFFFFF;stroke-width:2;stroke-miterlimit:10;}
	.st50{fill:none;stroke:#FFFFFF;stroke-linecap:round;stroke-miterlimit:10;}
	.st51{fill:none;stroke:#FFFFFF;stroke-linecap:round;stroke-miterlimit:10;stroke-dasharray:11.8241,11.8241;}
	.st52{clip-path:url(#SVGID_18_);}
	.st53{fill:url(#SVGID_19_);}
	.st54{fill:url(#SVGID_20_);}
	.st55{fill:#E05A5A;}
	.st56{fill:url(#Hintergrund_11_);}
	.st57{fill:url(#SVGID_21_);}
	.st58{fill:#E0595A;}
	.st59{fill:url(#SVGID_22_);}
	.st60{fill:url(#SVGID_23_);}
	.st61{fill:url(#SVGID_24_);}
	.st62{fill:url(#Hintergrund_12_);}
	.st63{fill:url(#SVGID_25_);}
	.st64{fill:url(#SVGID_26_);}
	.st65{fill:#229081;}
	.st66{fill:url(#Hintergrund_13_);}
	.st67{fill:url(#SVGID_27_);}
	.st68{fill:url(#SVGID_28_);}
	.st69{fill:none;stroke:#FFFFFF;stroke-width:2;stroke-linecap:round;stroke-linejoin:round;stroke-miterlimit:10;}
	.st70{fill:none;stroke:#FFFFFF;stroke-linecap:round;stroke-linejoin:round;}
	.st71{fill:none;stroke:#FFFFFF;stroke-linecap:round;stroke-linejoin:round;stroke-dasharray:6.7806,6.7806;}
	.st72{fill:none;stroke:#FFFFFF;stroke-linecap:round;stroke-linejoin:round;stroke-dasharray:8.0838,8.0838;}
	.st73{fill:url(#SVGID_29_);}
	.st74{fill:url(#SVGID_30_);}
	.st75{fill:url(#SVGID_31_);}
	.st76{fill:url(#SVGID_32_);}
	.st77{fill:url(#SVGID_33_);}
	.st78{fill:url(#SVGID_34_);}
	.st79{fill:url(#SVGID_35_);}
	.st80{fill:url(#SVGID_36_);}
	.st81{fill:url(#SVGID_37_);}
	.st82{opacity:0.3;fill:#229081;}
	.st83{opacity:0.4;fill:#229081;}
	.st84{fill:url(#Hintergrund_14_);}
	.st85{clip-path:url(#SVGID_39_);}
	.st86{fill:url(#SVGID_40_);}
	.st87{fill:url(#SVGID_41_);}
	.st88{fill:url(#Hintergrund_15_);}
	.st89{fill:url(#SVGID_42_);}
	.st90{fill:url(#SVGID_43_);}
	.st91{fill:none;stroke:url(#gelb_1_);stroke-width:0.5;stroke-linecap:round;stroke-miterlimit:10;}
	.st92{fill:none;stroke:url(#blau_1_);stroke-width:0.5;stroke-linecap:round;stroke-miterlimit:10;}
	.st93{fill:none;stroke:url(#Achsen_1_);stroke-linecap:round;stroke-linejoin:round;stroke-miterlimit:10;}
	.st94{fill:url(#Hintergrund_16_);}
	.st95{clip-path:url(#SVGID_45_);}
	.st96{fill:url(#SVGID_46_);}
	.st97{fill:url(#SVGID_47_);}
	.st98{fill:url(#SVGID_48_);}
	.st99{fill:url(#Hintergrund_17_);}
	.st100{fill:url(#SVGID_49_);}
	.st101{fill:url(#Hintergrund_18_);}
	.st102{fill:url(#Hintergrund_19_);}
	.st103{fill:url(#SVGID_50_);}
	.st104{fill:url(#SVGID_51_);}
	.st105{fill:url(#SVGID_52_);}
	.st106{fill:url(#SVGID_53_);}
	.st107{fill:url(#SVGID_54_);}
	.st108{fill:url(#SVGID_55_);}
	.st109{fill:url(#SVGID_56_);}
	.st110{fill:#2A5159;}
	.st111{fill:url(#SVGID_57_);}
	.st112{fill:url(#SVGID_58_);}
	.st113{fill:url(#SVGID_59_);}
	.st114{fill:url(#SVGID_60_);}
	.st115{fill:url(#SVGID_61_);}
	.st116{fill:url(#SVGID_62_);}
	.st117{fill:url(#SVGID_63_);}
	.st118{fill:url(#SVGID_64_);}
	.st119{fill:url(#SVGID_65_);}
	.st120{fill:url(#SVGID_66_);}
	.st121{fill:url(#SVGID_67_);}
	.st122{fill:url(#SVGID_68_);}
	.st123{fill:#DF595A;}
	.st124{opacity:4.500000e-02;}
	.st125{opacity:9.100000e-02;}
	.st126{opacity:0.136;}
	.st127{opacity:0.182;}
	.st128{opacity:0.227;}
	.st129{opacity:0.273;}
	.st130{opacity:0.318;}
	.st131{opacity:0.364;}
	.st132{opacity:0.409;}
	.st133{opacity:0.455;}
	.st134{opacity:0.545;}
	.st135{opacity:0.591;}
	.st136{opacity:0.636;}
	.st137{opacity:0.682;}
	.st138{opacity:0.727;}
	.st139{opacity:0.773;}
	.st140{opacity:0.818;}
	.st141{opacity:0.864;}
	.st142{opacity:0.909;}
	.st143{opacity:0.955;}
	.st144{fill:url(#SVGID_69_);}
	.st145{fill:url(#SVGID_70_);}
	.st146{fill:url(#SVGID_71_);}
	.st147{clip-path:url(#SVGID_73_);}
	.st148{fill:#F2B321;}
	.st149{fill:#F2B322;}
	.st150{fill:#F2B424;}
	.st151{fill:#F2B425;}
	.st152{fill:#F2B426;}
	.st153{fill:#F3B528;}
	.st154{fill:#F3B529;}
	.st155{fill:#F3B62B;}
	.st156{fill:#F3B62C;}
	.st157{fill:#F3B72D;}
	.st158{fill:#F4B72E;}
	.st159{fill:#F4B830;}
	.st160{fill:#F4B931;}
	.st161{fill:#F4B932;}
	.st162{fill:#F4B933;}
	.st163{fill:#F4BA35;}
	.st164{fill:#F4BA36;}
	.st165{fill:#F4BA37;}
	.st166{fill:#F4BB38;}
	.st167{fill:#F4BB3A;}
	.st168{fill:#F5BC3B;}
	.st169{fill:#F5BC3C;}
	.st170{fill:#F5BD3D;}
	.st171{fill:#F5BD3E;}
	.st172{fill:#F5BE3F;}
	.st173{fill:#F6BF41;}
	.st174{fill:#F6BF42;}
	.st175{fill:#F6BF43;}
	.st176{fill:#F6C044;}
	.st177{fill:#F6C045;}
	.st178{fill:#F7C146;}
	.st179{fill:#F7C148;}
	.st180{fill:#F7C149;}
	.st181{fill:#F7C24A;}
	.st182{fill:#F7C24B;}
	.st183{fill:#F7C34C;}
	.st184{fill:#F7C44D;}
	.st185{fill:#F7C44F;}
	.st186{fill:#F7C550;}
	.st187{fill:#F7C551;}
	.st188{fill:#F7C552;}
	.st189{fill:#F8C653;}
	.st190{fill:#F8C754;}
	.st191{fill:#F8C755;}
	.st192{fill:#F8C756;}
	.st193{fill:#F8C758;}
	.st194{fill:#F8C859;}
	.st195{fill:#F8C85A;}
	.st196{fill:#F8C95B;}
	.st197{fill:#F8CA5C;}
	.st198{fill:#F8CA5D;}
	.st199{fill:#F9CB5E;}
	.st200{fill:#F9CB5F;}
	.st201{fill:#F9CC60;}
	.st202{fill:#F9CC61;}
	.st203{fill:#FACD62;}
	.st204{fill:#FACD63;}
	.st205{fill:#FACD65;}
	.st206{fill:#FACD66;}
	.st207{fill:#FACE67;}
	.st208{fill:#FACF68;}
	.st209{fill:#FBCF69;}
	.st210{fill:#FBD06A;}
	.st211{fill:#FBD06B;}
	.st212{fill:#FBD16C;}
	.st213{fill:#FBD16D;}
	.st214{fill:#FBD26E;}
	.st215{fill:#FBD26F;}
	.st216{fill:#FBD370;}
	.st217{fill:#FBD371;}
	.st218{fill:#FBD372;}
	.st219{fill:none;stroke:url(#SVGID_74_);stroke-width:2;stroke-linecap:round;stroke-linejoin:round;stroke-miterlimit:10;}
	.st220{fill:url(#SVGID_75_);}
	.st221{fill:url(#SVGID_76_);}
	.st222{fill:url(#SVGID_77_);}
	.st223{fill:url(#SVGID_78_);}
	.st224{fill:url(#SVGID_79_);}
	.st225{fill:#296877;}
	.st226{fill:url(#Konsole_1_);}
	.st227{fill:url(#SVGID_80_);}
	.st228{fill:url(#Kupplung_1_);}
	.st229{fill:url(#SVGID_81_);}
	.st230{fill:url(#SVGID_82_);}
	.st231{fill:none;stroke:#FFFFFF;stroke-width:3;stroke-linecap:round;stroke-linejoin:round;stroke-miterlimit:10;}
	.st232{fill:none;stroke:#FFFFFF;stroke-width:3;stroke-linecap:round;stroke-miterlimit:10;}
	.st233{fill:none;stroke:#FFFFFF;stroke-width:3;stroke-miterlimit:10;}
	.st234{fill:url(#Bremse_1_);}
	.st235{fill:url(#Gas_1_);}
	.st236{fill:url(#SVGID_83_);}
	.st237{clip-path:url(#SVGID_85_);}
	.st238{fill:url(#SVGID_86_);}
	.st239{fill:url(#SVGID_87_);}
</style>
<g id="Farbpots">
</g>
<g id="Scribbles">
</g>
<g id="Bild_1">
</g>
<g id="Bild_2">
</g>
<g id="Bild_3">
</g>
<g id="Bild_4">
</g>
<g id="Bild_5">
</g>
<g id="Bild_6">
</g>
<g id="Bild_7">
</g>
<g id="Bild_8">
</g>
<g id="Autokonsole">
	<g id="Autokonsole_1_">
		<path id="Boden" class="st225" d="M771.4,553.1H237c-122.9,0-223.4-100.5-223.4-223.4V114.1c0-6.4,5.2-11.6,11.6-11.6h957.8
			c6.4,0,11.6,5.2,11.6,11.6v215.6C994.8,452.5,894.2,553.1,771.4,553.1z"/>
		<linearGradient id="Konsole_1_" gradientUnits="userSpaceOnUse" x1="504.6358" y1="564.7958" x2="504.6358" y2="22.8375">
			<stop  offset="2.793296e-03" style="stop-color:#0F5159"/>
			<stop  offset="1" style="stop-color:#354F65"/>
		</linearGradient>
		<path id="Konsole" class="st226" d="M994.7,105.4v125.7c0,45.4-37.1,82.5-82.5,82.5H612c-9.8,0-17.7,7.9-17.7,17.7
			c-1.6,11.5-3.5,23.3-4.1,35.4c-3.5,70.4-3.5,116.6,4.1,172.9c0,1.7,0.9,10.7-6.2,17.9c-4.6,4.6-12,7.3-18.9,7.3h-100
			c-13.8,0-25.2-11.3-25.2-25.2c7-56,9.7-103.1,4-170.9c-1.1-12.7-2.4-25.2-4-37.4c0-1.2-0.1-7.5-5.2-12.5
			c-3.2-3.2-7.6-5.2-12.5-5.2H97.1c-45.4,0-82.5-37.1-82.5-82.5V105.4c0-45.4,37.1-82.5,82.5-82.5h815
			C957.5,22.8,994.7,60,994.7,105.4z"/>
		<g id="Lenkrad">
			<linearGradient id="SVGID_2_" gradientUnits="userSpaceOnUse" x1="8.132" y1="170.2939" x2="335.2437" y2="170.2939">
				<stop  offset="2.793296e-03" style="stop-color:#F1B21E"/>
				<stop  offset="1" style="stop-color:#FBD473"/>
			</linearGradient>
			<path class="st0" d="M171.7,6.7C81.5,6.7,8.1,80.1,8.1,170.3c0,90.2,73.4,163.6,163.5,163.6c90.2,0,163.6-73.4,163.6-163.6
				C335.2,80.1,261.9,6.7,171.7,6.7z M171.7,27.3c78.9,0,143,64.1,143,143c0,11.1-1.3,21.9-3.8,32.3l-51.5-20c-5.2-2.1-8.8-7-9-12.6
				c-0.1-2.7-0.6-6-1.7-9.4c0,0,54.1-14.4,54.7-18.8c0.6-4.4-3.9-9.3-3.9-9.3l-55.8,18.6c-8.8-11.7-28.7-22.8-72.1-23.1
				c-37.6-0.3-58,9.2-69.1,20.5l-56.2-20.5c0,0-6.5,4.9-4.6,9.3c2,4.4,53.7,20.8,53.7,20.8c-4.7,8.6-5.6,17.1-5.4,22.3
				c0.1,3.2-2,6.1-5,7l-52.4,15.8c-2.6-10.6-3.9-21.7-3.9-33.1C28.7,91.4,92.8,27.3,171.7,27.3z M41.1,228.4l50.1-20.3
				c3.4-1.3,7.2,0,9,3.1c4.7,8.3,15.4,23.8,33.8,34c1.4,0.7,2.5,1.9,3.1,3.3c6.9,15.8,14.6,37.4,16.4,63.5
				C103.2,305.8,61,273.1,41.1,228.4z M190.9,312c0-0.9,0-1.7,0.1-2.1c2.9-29.5,3.4-33.9,15-62.7c0.7-1.6,1.9-2.9,3.4-3.7
				c18.5-10,27.8-25,31.8-33.4c1.6-3.4,5.7-4.9,9.2-3.5l52.4,20.7C283.2,272.2,241.2,305.2,190.9,312z"/>
		</g>
		<linearGradient id="Kupplung_1_" gradientUnits="userSpaceOnUse" x1="320.5351" y1="371.6419" x2="320.5351" y2="335.5921">
			<stop  offset="2.793296e-03" style="stop-color:#F1B21E"/>
			<stop  offset="1" style="stop-color:#FBD473"/>
		</linearGradient>
		<path id="Kupplung" class="st228" d="M334.2,371.6h-27.3c-0.9,0-1.7-0.7-1.7-1.7v-19.1c0-8.4,6.8-15.3,15.3-15.3h0
			c8.4,0,15.3,6.8,15.3,15.3V370C335.8,370.9,335.1,371.6,334.2,371.6z"/>
		<g id="Steuerknauf_1_">
			<g>
				
					<linearGradient id="SVGID_3_" gradientUnits="userSpaceOnUse" x1="534.9619" y1="554.838" x2="534.9619" y2="439.2013" gradientTransform="matrix(1 -9.895051e-03 9.895051e-03 1 -20.5631 0.7558)">
					<stop  offset="0" style="stop-color:#CE383F"/>
					<stop  offset="0.433" style="stop-color:#CF3B41"/>
					<stop  offset="0.6983" style="stop-color:#D44348"/>
					<stop  offset="0.9179" style="stop-color:#DB5154"/>
					<stop  offset="1" style="stop-color:#DF595A"/>
				</linearGradient>
				<path class="st1" d="M473,435.1c-8.7-0.1-15.8,7-15.7,15.7l0.8,84.5l0,0c0.1,8.6,7.1,15.5,15.7,15.4l92.1-0.9
					c8.6-0.1,15.5-7.1,15.4-15.7l-0.1-6.3l-0.8-76.3c-0.1-8.5-6.9-15.4-15.4-15.4L473,435.1z"/>
			</g>
			<g>
				
					<image style="overflow:visible;" width="798" height="786" xlink:href="BEF99B95.png"  transform="matrix(0.24 0 0 0.24 423.9686 405.4086)">
				</image>
			</g>
			<g id="Schaltknauf_1_">
				<linearGradient id="SVGID_4_" gradientUnits="userSpaceOnUse" x1="519.5681" y1="529.343" x2="519.5681" y2="385.3376">
					<stop  offset="0" style="stop-color:#CE383F"/>
					<stop  offset="0.433" style="stop-color:#CF3B41"/>
					<stop  offset="0.6983" style="stop-color:#D44348"/>
					<stop  offset="0.9179" style="stop-color:#DB5154"/>
					<stop  offset="1" style="stop-color:#DF595A"/>
				</linearGradient>
				<path class="st2" d="M504.7,524.1c-4.9-4.2-6.5-9.7-7-11.6c-3.5-13.3,5.4-22.6,8.8-35.5c2.4-9,2.9-23-7.5-43.2
					c0,0-15.6-48.8,20.2-48.4c34.9,0.3,20.9,46.2,20.2,48.4c0,0.1,0,0,0,0.1c-2.9,8.9-8.8,27.2-4.2,44.9c0.9,3.3,1.3,3.4,6.5,19.7
					c1.3,4,2.1,6.6,1.9,10.3c0,0.9-0.5,8-5.5,13.5C529.9,531.1,513.7,531.6,504.7,524.1z"/>
			</g>
			<g id="Knaufbeschriftung_2_">
				<polyline class="st231" points="509.8,405.5 509.8,410 515.5,410 527,410 				"/>
				<line class="st232" x1="515.5" y1="405.5" x2="515.5" y2="414.2"/>
				<line class="st232" x1="521" y1="405.5" x2="521" y2="414"/>
				<line class="st232" x1="527.3" y1="405.5" x2="527.3" y2="414"/>
				<ellipse class="st233" cx="518.4" cy="410" rx="15.8" ry="18.2"/>
			</g>
		</g>
		<linearGradient id="Bremse_1_" gradientUnits="userSpaceOnUse" x1="368.0347" y1="371.7892" x2="368.0347" y2="335.7394">
			<stop  offset="2.793296e-03" style="stop-color:#F1B21E"/>
			<stop  offset="1" style="stop-color:#FBD473"/>
		</linearGradient>
		<path id="Bremse" class="st234" d="M381.7,371.8h-27.3c-0.9,0-1.7-0.7-1.7-1.7V351c0-8.4,6.8-15.3,15.3-15.3h0
			c8.4,0,15.3,6.8,15.3,15.3v19.1C383.3,371,382.6,371.8,381.7,371.8z"/>
		<linearGradient id="Gas_1_" gradientUnits="userSpaceOnUse" x1="393.5395" y1="342.123" x2="431.2189" y2="407.3857">
			<stop  offset="2.793296e-03" style="stop-color:#F1B21E"/>
			<stop  offset="1" style="stop-color:#FBD473"/>
		</linearGradient>
		<path id="Gas" class="st235" d="M429.4,407.8h-30.9c-2.6,0-3.9-1.8-3.9-4.4l6.5-62.8c0-2.6,2.1-4.8,4.8-4.8h16.4
			c2.6,0,4.8,2.1,4.8,4.8l5.2,63.3C432.2,406.4,432.1,407.8,429.4,407.8z"/>
		<g id="Problem_4_">
			<g class="st24">
				<g class="st25">
					<circle class="st13" cx="518.4" cy="208" r="97.1"/>
				</g>
				<g class="st26">
					<path class="st13" d="M518.4,301.7c-12.7,0-24.9-2.5-36.5-7.4c-11.2-4.7-21.2-11.5-29.8-20.1c-8.6-8.6-15.4-18.6-20.1-29.8
						c-4.9-11.6-7.4-23.8-7.4-36.5s2.5-24.9,7.4-36.5c4.7-11.2,11.5-21.2,20.1-29.8c8.6-8.6,18.6-15.4,29.8-20.1
						c11.6-4.9,23.8-7.4,36.5-7.4s24.9,2.5,36.5,7.4c11.2,4.7,21.2,11.5,29.8,20.1c8.6,8.6,15.4,18.6,20.1,29.8
						c4.9,11.6,7.4,23.8,7.4,36.5s-2.5,24.9-7.4,36.5c-4.7,11.2-11.5,21.2-20.1,29.8c-8.6,8.6-18.6,15.4-29.8,20.1
						C543.3,299.2,531,301.7,518.4,301.7z M518.4,114.3c-51.6,0-93.6,42-93.6,93.6s42,93.6,93.6,93.6s93.6-42,93.6-93.6
						S570,114.3,518.4,114.3z"/>
				</g>
				<g class="st28">
					<path class="st13" d="M518.4,298.4c-12.2,0-24.1-2.4-35.2-7.1c-10.8-4.6-20.4-11.1-28.7-19.4c-8.3-8.3-14.8-18-19.4-28.7
						c-4.7-11.1-7.1-23-7.1-35.2s2.4-24.1,7.1-35.2c4.6-10.8,11.1-20.4,19.4-28.7c8.3-8.3,18-14.8,28.7-19.4
						c11.1-4.7,23-7.1,35.2-7.1s24.1,2.4,35.2,7.1c10.8,4.6,20.4,11.1,28.7,19.4c8.3,8.3,14.8,18,19.4,28.7
						c4.7,11.1,7.1,23,7.1,35.2s-2.4,24.1-7.1,35.2c-4.6,10.8-11.1,20.4-19.4,28.7c-8.3,8.3-18,14.8-28.7,19.4
						C542.4,296,530.6,298.4,518.4,298.4z M518.4,117.7c-49.8,0-90.2,40.5-90.2,90.2s40.5,90.2,90.2,90.2s90.2-40.5,90.2-90.2
						S568.1,117.7,518.4,117.7z"/>
				</g>
				<g class="st29">
					<path class="st13" d="M518.4,295.1c-23.3,0-45.1-9.1-61.6-25.5c-16.5-16.5-25.5-38.3-25.5-61.6s9.1-45.1,25.5-61.6
						c16.5-16.5,38.3-25.5,61.6-25.5s45.1,9.1,61.6,25.5s25.5,38.3,25.5,61.6s-9.1,45.1-25.5,61.6
						C563.5,286,541.6,295.1,518.4,295.1z M518.4,121.2c-47.9,0-86.8,38.9-86.8,86.8s38.9,86.8,86.8,86.8s86.8-38.9,86.8-86.8
						S566.3,121.2,518.4,121.2z"/>
				</g>
				<g class="st30">
					<path class="st13" d="M518.4,291.8c-46.2,0-83.8-37.6-83.8-83.8s37.6-83.8,83.8-83.8s83.8,37.6,83.8,83.8
						S564.6,291.8,518.4,291.8z M518.4,124.6c-46,0-83.4,37.4-83.4,83.4s37.4,83.4,83.4,83.4s83.4-37.4,83.4-83.4
						S564.4,124.6,518.4,124.6z"/>
				</g>
				<g class="st31">
					<path class="st13" d="M518.4,288.5c-44.4,0-80.5-36.1-80.5-80.5c0-44.4,36.1-80.5,80.5-80.5s80.5,36.1,80.5,80.5
						C598.9,252.4,562.8,288.5,518.4,288.5z M518.4,128c-44.1,0-80,35.9-80,80s35.9,80,80,80s80-35.9,80-80S562.5,128,518.4,128z"/>
				</g>
				<g class="st32">
					<path class="st13" d="M518.4,285.1c-42.5,0-77.2-34.6-77.2-77.2c0-42.5,34.6-77.2,77.2-77.2c42.6,0,77.2,34.6,77.2,77.2
						C595.5,250.5,560.9,285.1,518.4,285.1z M518.4,131.4c-42.2,0-76.6,34.4-76.6,76.6c0,42.2,34.4,76.6,76.6,76.6
						c42.2,0,76.6-34.4,76.6-76.6C595,165.8,560.6,131.4,518.4,131.4z"/>
				</g>
				<g class="st33">
					<path class="st13" d="M518.4,281.8c-40.7,0-73.9-33.1-73.9-73.9s33.1-73.9,73.9-73.9s73.9,33.1,73.9,73.9
						S559.1,281.8,518.4,281.8z M518.4,134.8c-40.3,0-73.2,32.8-73.2,73.2s32.8,73.2,73.2,73.2c40.3,0,73.2-32.8,73.2-73.2
						S558.7,134.8,518.4,134.8z"/>
				</g>
				<g class="st34">
					<path class="st13" d="M518.4,278.5c-38.9,0-70.5-31.6-70.5-70.5s31.6-70.5,70.5-70.5c38.9,0,70.5,31.6,70.5,70.5
						S557.3,278.5,518.4,278.5z M518.4,138.2c-38.5,0-69.7,31.3-69.7,69.7c0,38.5,31.3,69.7,69.7,69.7c38.5,0,69.7-31.3,69.7-69.7
						C588.1,169.5,556.8,138.2,518.4,138.2z"/>
				</g>
				<g class="st35">
					<path class="st13" d="M518.4,275.2c-37.1,0-67.2-30.2-67.2-67.2c0-37.1,30.2-67.2,67.2-67.2s67.2,30.2,67.2,67.2
						C585.6,245,555.4,275.2,518.4,275.2z M518.4,141.6c-36.6,0-66.3,29.8-66.3,66.3c0,36.6,29.8,66.3,66.3,66.3
						s66.3-29.8,66.3-66.3C584.7,171.4,555,141.6,518.4,141.6z"/>
				</g>
				<g class="st36">
					<path class="st13" d="M518.4,271.9c-35.2,0-63.9-28.7-63.9-63.9c0-35.2,28.7-63.9,63.9-63.9c35.2,0,63.9,28.7,63.9,63.9
						C582.3,243.2,553.6,271.9,518.4,271.9z M518.4,145.1c-34.7,0-62.9,28.2-62.9,62.9c0,34.7,28.2,62.9,62.9,62.9
						s62.9-28.2,62.9-62.9C581.3,173.3,553.1,145.1,518.4,145.1z"/>
				</g>
				<g class="st37">
					<path class="st13" d="M518.4,268.6c-33.4,0-60.6-27.2-60.6-60.6s27.2-60.6,60.6-60.6S579,174.6,579,208
						S551.8,268.6,518.4,268.6z M518.4,148.5c-32.8,0-59.5,26.7-59.5,59.5c0,32.8,26.7,59.5,59.5,59.5c32.8,0,59.5-26.7,59.5-59.5
						C577.9,175.2,551.2,148.5,518.4,148.5z"/>
				</g>
				<g class="st38">
					<path class="st13" d="M518.4,265.2c-31.6,0-57.3-25.7-57.3-57.3s25.7-57.3,57.3-57.3c31.6,0,57.3,25.7,57.3,57.3
						S550,265.2,518.4,265.2z M518.4,151.9c-30.9,0-56.1,25.2-56.1,56.1s25.2,56.1,56.1,56.1c30.9,0,56.1-25.2,56.1-56.1
						S549.3,151.9,518.4,151.9z"/>
				</g>
				<g class="st39">
					<path class="st13" d="M518.4,261.9c-29.7,0-54-24.2-54-54c0-29.7,24.2-54,54-54c29.7,0,54,24.2,54,54
						C572.3,237.7,548.1,261.9,518.4,261.9z M518.4,155.3c-29,0-52.7,23.6-52.7,52.7c0,29,23.6,52.7,52.7,52.7
						c29,0,52.7-23.6,52.7-52.7C571,178.9,547.4,155.3,518.4,155.3z"/>
				</g>
				<g class="st40">
					<path class="st13" d="M518.4,258.6c-27.9,0-50.6-22.7-50.6-50.6s22.7-50.6,50.6-50.6c27.9,0,50.6,22.7,50.6,50.6
						S546.3,258.6,518.4,258.6z M518.4,158.7c-27.2,0-49.3,22.1-49.3,49.3s22.1,49.3,49.3,49.3s49.3-22.1,49.3-49.3
						S545.5,158.7,518.4,158.7z"/>
				</g>
				<g class="st41">
					<path class="st13" d="M518.4,255.3c-26.1,0-47.3-21.2-47.3-47.3s21.2-47.3,47.3-47.3c26.1,0,47.3,21.2,47.3,47.3
						S544.5,255.3,518.4,255.3z M518.4,162.1c-25.3,0-45.8,20.6-45.8,45.8s20.6,45.8,45.8,45.8s45.8-20.6,45.8-45.8
						S543.7,162.1,518.4,162.1z"/>
				</g>
				<g class="st42">
					<path class="st13" d="M518.4,252c-24.3,0-44-19.7-44-44c0-24.3,19.7-44,44-44s44,19.7,44,44C562.4,232.2,542.6,252,518.4,252z
						 M518.4,165.6c-23.4,0-42.4,19-42.4,42.4c0,23.4,19,42.4,42.4,42.4c23.4,0,42.4-19,42.4-42.4
						C560.8,184.6,541.8,165.6,518.4,165.6z"/>
				</g>
				<g class="st43">
					<path class="st13" d="M518.4,248.7c-22.4,0-40.7-18.3-40.7-40.7c0-22.4,18.3-40.7,40.7-40.7c22.4,0,40.7,18.3,40.7,40.7
						C559.1,230.4,540.8,248.7,518.4,248.7z M518.4,169c-21.5,0-39,17.5-39,39s17.5,39,39,39c21.5,0,39-17.5,39-39
						S539.9,169,518.4,169z"/>
				</g>
				<g class="st44">
					<path class="st13" d="M518.4,245.4c-20.6,0-37.4-16.8-37.4-37.4s16.8-37.4,37.4-37.4s37.4,16.8,37.4,37.4
						S539,245.4,518.4,245.4z M518.4,172.4c-19.6,0-35.6,16-35.6,35.6s16,35.6,35.6,35.6s35.6-16,35.6-35.6S538,172.4,518.4,172.4z"
						/>
				</g>
				<g class="st45">
					<path class="st13" d="M518.4,242c-18.8,0-34.1-15.3-34.1-34.1s15.3-34.1,34.1-34.1c18.8,0,34.1,15.3,34.1,34.1
						S537.2,242,518.4,242z M518.4,175.8c-17.7,0-32.2,14.4-32.2,32.2s14.4,32.2,32.2,32.2s32.2-14.4,32.2-32.2
						S536.1,175.8,518.4,175.8z"/>
				</g>
				<g class="st46">
					<path class="st13" d="M518.4,238.7c-17,0-30.7-13.8-30.7-30.7c0-16.9,13.8-30.7,30.7-30.7s30.7,13.8,30.7,30.7
						C549.1,224.9,535.3,238.7,518.4,238.7z M518.4,179.2c-15.9,0-28.8,12.9-28.8,28.8s12.9,28.8,28.8,28.8
						c15.9,0,28.8-12.9,28.8-28.8S534.2,179.2,518.4,179.2z"/>
				</g>
				<g class="st47">
					<path class="st13" d="M518.4,235.4c-15.1,0-27.4-12.3-27.4-27.4c0-15.1,12.3-27.4,27.4-27.4c15.1,0,27.4,12.3,27.4,27.4
						C545.8,223.1,533.5,235.4,518.4,235.4z M518.4,182.6c-14,0-25.4,11.4-25.4,25.4c0,14,11.4,25.4,25.4,25.4
						c14,0,25.4-11.4,25.4-25.4C543.7,194,532.4,182.6,518.4,182.6z"/>
				</g>
				<g>
					<path class="st13" d="M518.4,232.1c-13.3,0-24.1-10.8-24.1-24.1s10.8-24.1,24.1-24.1s24.1,10.8,24.1,24.1
						S531.7,232.1,518.4,232.1z M518.4,186c-12.1,0-21.9,9.8-21.9,21.9s9.8,21.9,21.9,21.9c12.1,0,21.9-9.8,21.9-21.9
						S530.5,186,518.4,186z"/>
				</g>
			</g>
			<circle class="st13" cx="518.4" cy="208" r="13.5"/>
		</g>
		<g id="Logo_4_">
			
				<linearGradient id="SVGID_5_" gradientUnits="userSpaceOnUse" x1="503.4496" y1="1102.7092" x2="533.6782" y2="1155.0668" gradientTransform="matrix(1 0 0 -1 0 1337.6298)">
				<stop  offset="0" style="stop-color:#2E4F61"/>
				<stop  offset="1" style="stop-color:#17515C"/>
			</linearGradient>
			<path class="st3" d="M548.8,208.8c0,0.6,0,1.3-0.1,1.9v0.1c0,0.5,0,0.7-0.1,1.2c0,0.1,0,0.1,0,0.2c-0.2,1.6-0.5,3.1-0.9,4.6v0.1
				l0,0c-3.6,12.7-15.3,21.9-29.2,21.9c-10.2,0-19.1-5-24.6-12.6c-1.9-2.7-3.5-5.7-4.4-9c0,0,0,0,0-0.1c-0.8-2.8-1.3-5.6-1.3-8.5
				c0-2.5,0.3-5,0.8-7.2l0,0c3.5-13.2,15.4-22.9,29.4-22.9c1,0,2.2,0.1,3.2,0.2l0,0c1.6,0.1,3.1,0.5,4.6,0.8h0.1
				c4.8,1.3,8.9,3.7,12.5,7c4.2,3.8,7.2,8.8,8.7,14.4v0.1C548.5,203.6,548.8,206.2,548.8,208.8z"/>
			<path class="st13" d="M526.6,179.7l-12.1,52.9h-5l-6.8-12.7l4.9-0.1l3.5,6.5l10.7-47.5C523.4,178.9,524.9,179.2,526.6,179.7z"/>
			<g id="Ebene_1_7_">
				<g>
					<path class="st13" d="M497.5,194.2l-1.6,8.1c-0.8-1-2-1.7-3.4-1.7c-1.3,0-2.4,0.3-3.4,0.9l0,0c-0.6,2.2-0.8,4.6-0.8,7.2
						c0,3,0.5,5.8,1.3,8.5c0.2,0,0.6,0.1,0.7,0.1c1.5,0.1,2.9-0.6,4.1-2l-0.2,1.7h4.4l3.9-22.9L497.5,194.2L497.5,194.2z
						 M494.4,212.3c-0.7,0.9-1.6,1.4-2.5,1.4c-1.2-0.1-1.7-0.8-1.7-2.5c0-0.6,0-1,0.1-1.7c0.2-1.6,0.6-2.9,0.9-3.5
						c0.6-0.7,1.3-1.2,2.2-1.2c1,0,1.7,0.5,2,1.4L494.4,212.3z"/>
					<path class="st13" d="M513,205.5c-0.6-0.1-1-0.1-1.5-0.1c-1.5,0-2.5,0.5-3.4,1.5l-1.8,10.2h-4.9l2.8-16.1h4.5l-0.5,2.1
						c1-1.6,2.3-2.4,3.7-2.4c0.5,0,0.9,0.1,1.5,0.2L513,205.5z"/>
					<path class="st13" d="M531,212c0.1-0.6-0.5-1.2-1.5-1.5l-1-0.3c-1.7-0.5-3-1-3.8-1.9c-0.8-0.8-1.2-1.8-1.2-3
						c0-1.6,0.7-2.9,2-3.8c1.4-0.9,3-1.5,4.9-1.4c1.9,0,3.4,0.6,4.6,1.5c1.2,0.9,1.8,2.2,1.8,3.8H532c0-1.3-0.6-1.9-1.7-1.9
						c-0.6,0-0.9,0.1-1.4,0.5c-0.5,0.3-0.6,0.6-0.7,1.2c-0.2,0.8,0.6,1.4,2.1,1.7c1.4,0.3,2.4,0.7,3.1,1.2s1.4,0.9,1.7,1.6
						s0.6,1.4,0.6,2.3c0,0.9-0.3,1.8-0.9,2.7c-0.6,0.7-1.5,1.4-2.7,1.8c-1.2,0.5-2.4,0.6-3.7,0.6c-1.2,0-2.2-0.2-3.2-0.7
						c-0.9-0.6-1.8-1.2-2.3-1.9c-0.6-0.8-0.8-1.8-0.8-2.9h4.5c0,1.5,0.7,2.1,2.1,2.1c0.6,0,1.2-0.1,1.6-0.5
						C530.5,212.8,530.8,212.4,531,212z"/>
					<path class="st13" d="M547.8,201.2c-0.6-0.2-1.3-0.3-1.9-0.3c-2.3-0.1-4.3,0.6-5.8,2.2c-1.6,1.5-2.4,3.6-2.8,6.3v0.5
						c-0.2,1.4,0.1,2.8,0.6,3.9c0.6,1.2,1.4,2.1,2.5,2.8c1,0.7,2.3,1,3.8,1v0.1h0.1c1.3,0,2.2-0.2,3.2-0.6l0,0V217
						c0.6-1.5,0.7-3.1,0.9-4.6l-0.1-0.1c-1.2,1-2.4,1.6-3.8,1.6c-0.8,0-1.6-0.3-2-0.8c-0.6-0.6-0.7-1.2-0.7-2h6.8v-0.1
						c0.1-0.6,0.1-1.3,0.1-1.9C548.8,206.2,548.5,203.6,547.8,201.2z M547.2,207.1l-0.1,0.5h-4.9c0.5-1.2,0.8-1.9,1.4-2.3
						c0.6-0.5,1-0.6,1.8-0.6c1,0.1,1.7,0.6,1.8,1.6C547.4,206.4,547.4,206.8,547.2,207.1z"/>
				</g>
			</g>
		</g>
	</g>
</g>
<g id="Ebene_12">
</g>
</svg>
