<?xml version="1.0" encoding="utf-8"?>
<!-- Generator: Adobe Illustrator 25.2.0, SVG Export Plug-In . SVG Version: 6.00 Build 0)  -->
<svg version="1.1" id="Ebene_1" xmlns="http://www.w3.org/2000/svg" xmlns:xlink="http://www.w3.org/1999/xlink" x="0px" y="0px"
	 viewBox="0 0 50 50" style="enable-background:new 0 0 50 50;" xml:space="preserve">
<style type="text/css">
	.st0{fill:#CE383F;}
	.st1{fill:#E0595A;}
</style>
<g id="Folie_15">
</g>
<g id="Ebene_18">
</g>
<g id="Folie_14">
</g>
<g id="Folie_13">
</g>
<g id="Folie_12">
</g>
<g id="Folie_11">
</g>
<g id="Folie_10">
</g>
<g id="Folie_9">
</g>
<g id="Folie_8">
</g>
<g id="Folie_7">
</g>
<g id="Folie_5">
</g>
<g id="Folie_4.5">
</g>
<g id="Folie_4">
</g>
<g id="Folie3">
</g>
<g id="Folie2">
</g>
<g id="Folie1">
</g>
<g id="Folie_6">
	<g id="Gruppe_41" transform="translate(2622.027 1649.88) rotate(82)">
		<path id="Rechteck_16" class="st0" d="M-1954.6,2353L-1954.6,2353c-2.3,5.1-8.4,7.3-13.6,5l-13.3-6.2c-5.1-2.3-7.3-8.4-5-13.6l0,0
			c2.3-5.1,8.4-7.3,13.6-5l13.3,6.2C-1954.4,2341.8-1952.2,2347.9-1954.6,2353z"/>
		<path id="Rechteck_17" class="st1" d="M-1962.5,2349.2L-1962.5,2349.2c-1.7,3.8-6.1,5.4-9.9,3.7l-6.5-2.9
			c-3.8-1.7-5.4-6.1-3.7-9.9l0,0c1.7-3.8,6.1-5.4,9.9-3.7l6.5,2.9C-1962.4,2341-1960.7,2345.4-1962.5,2349.2z"/>
	</g>
</g>
</svg>
